<svg width="118" height="118" viewBox="0 0 118 118" fill="none" xmlns="http://www.w3.org/2000/svg">
<path d="M106.369 70.3675C112.695 44.1576 96.5766 17.7819 70.3667 11.4556C44.1569 5.12926 17.7811 21.248 11.4548 47.4579C5.12849 73.6677 21.2473 100.044 47.4571 106.37C73.667 112.696 100.043 96.5773 106.369 70.3675Z" fill="#193C6C"/>
<path d="M87.3662 75.3584C62.8562 83.2884 34.8962 73.6284 26.9662 49.1284C23.3562 37.9884 15.9563 29.1384 6.65625 23.5384C31.1663 15.6084 57.4562 29.0484 65.3962 53.5584C69.0062 64.6984 78.0662 69.7784 87.3662 75.3684" fill="#CEA93A"/>
<path d="M66.5664 43.5086C67.9864 46.1986 69.1964 49.0286 70.1564 51.9886C71.5264 56.2186 73.7964 59.4786 76.6764 62.2686C81.7864 58.1486 85.4964 52.2486 86.7464 45.2786C87.9964 38.2986 91.7164 32.3786 96.8464 28.2586C84.1864 25.9886 72.0164 32.5386 66.5664 43.4986V43.5086Z" fill="white"/>
<path d="M43.4648 76.0078C44.7248 81.2978 47.5248 86.2778 51.8348 90.2278C57.0448 94.9878 60.0449 101.258 60.7949 107.758C67.1549 100.798 69.3649 91.4978 67.5449 82.9278C61.2149 82.5578 55.1448 81.2178 49.4848 78.9178C47.3848 78.0678 45.3748 77.0978 43.4648 76.0078Z" fill="#CEA93A"/>
</svg>
