<svg width="26" height="26" viewBox="0 0 26 26" fill="none" xmlns="http://www.w3.org/2000/svg">
<path d="M23.275 9.00752C22.9106 8.48912 22.4453 7.87987 21.8391 7.17788C20.9847 8.05903 19.6334 8.06284 18.7836 7.21536C18.5808 7.013 18.4207 6.77312 18.3127 6.50958C18.2048 6.24604 18.151 5.96408 18.1545 5.67999C18.1581 5.3959 18.2189 5.11531 18.3334 4.85446C18.4479 4.59361 18.6139 4.35766 18.8218 4.16025C18.2365 3.65193 17.6256 3.17275 16.9916 2.72449C15.5408 1.71883 13.3455 1.77155 11.9198 2.81153C11.0487 3.43538 8.47729 5.70909 7.1053 7.10736C5.70812 8.47895 3.43527 11.0506 2.811 11.9197C1.77312 13.3466 1.71755 15.5408 2.7244 16.9925C3.08888 17.5109 3.55418 18.1201 4.16036 18.8221C5.0147 17.941 6.366 17.9372 7.21581 18.7846C7.41875 18.987 7.57887 19.2268 7.6869 19.4904C7.79493 19.7539 7.84873 20.0359 7.84518 20.32C7.84164 20.6041 7.78082 20.8847 7.66624 21.1456C7.55167 21.4065 7.38561 21.6424 7.17769 21.8398C7.76298 22.3481 8.3738 22.8273 9.00785 23.2755C10.4587 24.2812 12.654 24.2284 14.0796 23.1885C14.9507 22.5646 17.5222 20.2909 18.8941 18.8926C20.292 17.521 22.5642 14.9494 23.1891 14.0797C24.227 12.6534 24.2825 10.4585 23.275 9.00752Z" fill="#0B113E"/>
<path d="M12.9427 8.41602C10.4432 8.41602 8.41699 10.4422 8.41699 12.9417C8.41699 15.4412 10.4432 17.4674 12.9427 17.4674C15.4422 17.4674 17.4684 15.4412 17.4684 12.9417C17.4684 10.4422 15.4422 8.41602 12.9427 8.41602Z" fill="#E7E7EC"/>
<path d="M10.7402 11.999C10.3964 11.9864 10.1131 12.1013 9.88444 12.3463C9.65582 12.5913 9.54713 12.8974 9.54786 13.2641C9.54858 13.6307 9.66742 13.9457 9.91016 14.2066C10.1529 14.4674 10.4496 14.6037 10.7927 14.6091C10.9571 14.6137 11.1205 14.5842 11.2726 14.5224C11.4247 14.4606 11.562 14.3679 11.6757 14.2503C11.7955 14.1327 11.8896 13.9919 11.9519 13.8366C12.0143 13.6813 12.0436 13.515 12.038 13.348C12.0334 12.9943 11.9006 12.6821 11.6395 12.4116C11.3858 12.1483 11.0851 12.0105 10.7402 11.999ZM11.1311 13.6827C11.0903 13.7275 11.0397 13.7626 10.9833 13.7853C10.9268 13.8081 10.8659 13.8179 10.8051 13.8141C10.6808 13.8058 10.5659 13.7463 10.4583 13.6318C10.363 13.5356 10.3071 13.4077 10.3015 13.273C10.2974 13.2115 10.3064 13.1497 10.3278 13.0918C10.3492 13.0339 10.3825 12.981 10.4257 12.9365C10.4648 12.8925 10.5138 12.8583 10.5688 12.8366C10.6237 12.8149 10.6831 12.8063 10.742 12.8116C10.8729 12.8246 10.9938 12.8869 11.0797 12.9856C11.1787 13.0822 11.2397 13.2105 11.2518 13.3476C11.2577 13.4088 11.25 13.4706 11.2292 13.5285C11.2083 13.5864 11.1748 13.6391 11.1311 13.6827ZM13.8024 15.3224C13.8148 15.3717 13.8164 15.4231 13.8071 15.4731C13.7978 15.5231 13.7778 15.5705 13.7484 15.6123C13.719 15.654 13.6809 15.6889 13.6368 15.7149C13.5926 15.7408 13.5433 15.7571 13.4923 15.7626C13.3843 15.777 13.2747 15.7514 13.1846 15.6907C13.0945 15.63 13.0303 15.5384 13.0043 15.4336C12.651 13.8639 12.3242 12.1981 11.9699 10.5686C11.9549 10.5069 11.9559 10.4425 11.9726 10.3812C11.9893 10.32 12.0213 10.2639 12.0655 10.218L12.0692 10.2144C12.2865 9.99631 12.6869 10.137 12.7575 10.4602C13.1101 12.084 13.4408 13.7491 13.8024 15.3224ZM16.336 12.892C16.3299 12.5387 16.1854 12.2016 15.9332 11.9516C15.8164 11.8259 15.675 11.7251 15.5176 11.6553C15.3602 11.5855 15.1901 11.5483 15.0176 11.5459C14.8519 11.5376 14.6863 11.5647 14.532 11.6253C14.3777 11.6859 14.2384 11.7786 14.1234 11.8971C13.884 12.1382 13.7691 12.4399 13.7763 12.7984C13.778 12.9714 13.8145 13.1424 13.8837 13.3013C13.9529 13.4603 14.0534 13.604 14.1792 13.724C14.4437 13.9859 14.7535 14.1219 15.1046 14.1334C15.4556 14.1449 15.7498 14.0329 15.9875 13.7922C16.2252 13.5514 16.344 13.2468 16.336 12.892ZM15.4303 13.2149C15.3885 13.2594 15.3371 13.2939 15.28 13.3159C15.2228 13.3379 15.1613 13.3468 15.1002 13.3419C14.9727 13.3326 14.8531 13.2723 14.7397 13.1586C14.6405 13.0659 14.5804 12.9396 14.5712 12.8048C14.5668 12.744 14.5759 12.6829 14.5978 12.6259C14.6197 12.5689 14.6539 12.5173 14.6981 12.4747C14.7398 12.4316 14.7907 12.3981 14.8471 12.3768C14.9035 12.3554 14.9639 12.3468 15.0241 12.3513C15.1578 12.3634 15.2818 12.4252 15.3712 12.5243C15.4725 12.6197 15.5358 12.7478 15.5498 12.8855C15.5565 12.946 15.5493 13.0071 15.5289 13.0644C15.5084 13.1218 15.4752 13.1738 15.4317 13.2167L15.4303 13.2149Z" fill="#0B113E"/>
</svg>
