<svg width="26" height="26" viewBox="0 0 26 26" fill="none" xmlns="http://www.w3.org/2000/svg">
<path d="M24.7085 8.59185C24.6094 7.12864 23.2376 5.46645 21.7554 5.22458C15.8955 4.22685 9.98576 6.90786 4.02256 6.38474C2.55443 6.27083 1.26561 7.12442 1.16084 8.59185C0.946387 11.8414 0.946387 15.1016 1.16084 18.3512C1.25998 19.8151 2.63178 21.4773 4.11396 21.7192C9.97381 22.7169 15.8836 20.0359 21.8468 20.559C23.3149 20.6729 24.6037 19.8193 24.7085 18.3512C24.9229 15.1016 24.9229 11.8414 24.7085 8.59185Z" fill="#0B113E"/>
<path d="M12.9355 7.4707C9.62181 7.4707 6.93555 10.157 6.93555 13.4707C6.93555 16.7844 9.62181 19.4707 12.9355 19.4707C16.2493 19.4707 18.9355 16.7844 18.9355 13.4707C18.9355 10.157 16.2493 7.4707 12.9355 7.4707Z" fill="#E7E7EC"/>
<path d="M12.2941 12.7445C12.4647 12.8761 12.6954 12.9496 12.9355 12.9488C13.3796 12.9492 13.8136 13.052 14.1828 13.2442C14.5521 13.4364 14.8401 13.7095 15.0106 14.029C15.1811 14.3485 15.2264 14.7002 15.1409 15.0398C15.0554 15.3794 14.8429 15.6916 14.5301 15.9373C14.2711 16.1376 13.9544 16.2866 13.6063 16.372V16.698C13.6063 16.8366 13.5356 16.9696 13.4098 17.0676C13.284 17.1656 13.1134 17.2207 12.9355 17.2207C12.7577 17.2207 12.587 17.1656 12.4613 17.0676C12.3355 16.9696 12.2648 16.8366 12.2648 16.698V16.372C11.8069 16.2615 11.4065 16.0396 11.1222 15.7388C10.838 15.438 10.685 15.0741 10.6855 14.7006C10.6912 14.565 10.7643 14.4363 10.8894 14.3419C11.0145 14.2475 11.1818 14.1947 11.3559 14.1947C11.5301 14.1947 11.6974 14.2475 11.8225 14.3419C11.9476 14.4363 12.0207 14.565 12.0263 14.7006C12.0269 14.889 12.1232 15.0695 12.2941 15.2027C12.4693 15.3295 12.6998 15.3998 12.939 15.399C13.1781 15.3983 13.408 15.3268 13.5819 15.1989C13.7505 15.0664 13.845 14.8872 13.8448 14.7006C13.8444 14.5117 13.7482 14.3306 13.577 14.1969C13.4064 14.0653 13.1757 13.9918 12.9355 13.9926C12.4915 13.9922 12.0575 13.8894 11.6883 13.6972C11.319 13.505 11.031 13.2319 10.8605 12.9124C10.69 12.5929 10.6447 12.2412 10.7302 11.9016C10.8157 11.562 11.0282 11.2498 11.341 11.0041C11.6 10.8038 11.9167 10.6548 12.2648 10.5694V10.2434C12.2648 10.1048 12.3355 9.97183 12.4613 9.8738C12.587 9.77577 12.7577 9.7207 12.9355 9.7207C13.1134 9.7207 13.284 9.77577 13.4098 9.8738C13.5356 9.97183 13.6063 10.1048 13.6063 10.2434V10.5694C14.0627 10.6813 14.4617 10.9034 14.7455 11.2035C15.0294 11.5036 15.1835 11.8663 15.1855 12.2392C15.1855 12.378 15.1148 12.5112 14.9888 12.6094C14.8628 12.7075 14.6919 12.7627 14.5138 12.7627C14.3356 12.7627 14.1647 12.7075 14.0387 12.6094C13.9127 12.5112 13.842 12.378 13.842 12.2392C13.8405 12.1235 13.8026 12.0098 13.7316 11.9082C13.6606 11.8066 13.5586 11.7201 13.4347 11.6564C13.3107 11.5927 13.1686 11.5537 13.0207 11.5428C12.8729 11.5319 12.7239 11.5495 12.5869 11.594C12.4498 11.6386 12.3289 11.7086 12.2347 11.7981C12.1406 11.8876 12.0761 11.9937 12.0469 12.1072C12.0177 12.2206 12.0247 12.3379 12.0673 12.4488C12.1099 12.5596 12.1869 12.6606 12.2913 12.7429L12.2941 12.7445Z" fill="#0B113E"/>
</svg>
