<svg width="26" height="26" viewBox="0 0 26 26" fill="none" xmlns="http://www.w3.org/2000/svg">
<path d="M12.1328 24.9012C12.3853 25.0112 12.6742 25.0112 12.9267 24.9012C15.9165 23.5997 22.05 17.3899 22.05 11.5149C22.05 6.25959 17.7897 2 12.5351 2H12.5149C7.25958 2 3 6.26026 3 11.5149C3 17.3905 9.14298 23.5997 12.1335 24.9012H12.1328Z" fill="#0B113E"/>
<path d="M12.5241 5.57227C9.34269 5.57227 6.76367 8.15128 6.76367 11.3327C6.76367 14.5142 9.34269 17.0932 12.5241 17.0932C15.7056 17.0932 18.2846 14.5142 18.2846 11.3327C18.2846 8.15128 15.7056 5.57227 12.5241 5.57227Z" fill="white"/>
<path d="M11.7873 10.8069C11.9769 10.9166 12.2332 10.9779 12.5 10.9772C12.9934 10.9775 13.4756 11.0632 13.8859 11.2233C14.2961 11.3835 14.6161 11.6111 14.8056 11.8774C14.995 12.1436 15.0454 12.4367 14.9504 12.7197C14.8554 13.0027 14.6193 13.2629 14.2718 13.4676C13.984 13.6345 13.632 13.7587 13.2453 13.8298V14.1015C13.2453 14.217 13.1668 14.3278 13.027 14.4095C12.8872 14.4912 12.6977 14.5371 12.5 14.5371C12.3023 14.5371 12.1128 14.4912 11.973 14.4095C11.8332 14.3278 11.7547 14.217 11.7547 14.1015V13.8298C11.2459 13.7378 10.801 13.5529 10.4852 13.3022C10.1694 13.0515 9.99937 12.7483 10 12.437C10.0062 12.324 10.0875 12.2168 10.2265 12.1381C10.3655 12.0595 10.5514 12.0155 10.7449 12.0155C10.9384 12.0155 11.1243 12.0595 11.2633 12.1381C11.4023 12.2168 11.4835 12.324 11.4898 12.437C11.4904 12.594 11.5974 12.7444 11.7873 12.8554C11.9819 12.9611 12.2381 13.0197 12.5038 13.0191C12.7695 13.0185 13.0249 12.9588 13.2182 12.8522C13.4055 12.7418 13.5105 12.5925 13.5102 12.437C13.5099 12.2796 13.4029 12.1287 13.2127 12.0173C13.0231 11.9076 12.7668 11.8464 12.5 11.847C12.0066 11.8467 11.5244 11.7611 11.1141 11.6009C10.7039 11.4407 10.3839 11.2131 10.1944 10.9469C10.005 10.6806 9.95459 10.3875 10.0496 10.1045C10.1446 9.82155 10.3807 9.56132 10.7282 9.35662C11.016 9.18972 11.368 9.06551 11.7547 8.99438V8.7227C11.7547 8.60718 11.8332 8.49638 11.973 8.41469C12.1128 8.333 12.3023 8.28711 12.5 8.28711C12.6977 8.28711 12.8872 8.333 13.027 8.41469C13.1668 8.49638 13.2453 8.60718 13.2453 8.7227V8.99438C13.7524 9.08761 14.1957 9.27265 14.5111 9.52277C14.8265 9.77288 14.9977 10.0751 15 10.3858C15 10.5015 14.9214 10.6125 14.7814 10.6943C14.6414 10.7761 14.4515 10.8221 14.2536 10.8221C14.0556 10.8221 13.8657 10.7761 13.7258 10.6943C13.5858 10.6125 13.5071 10.5015 13.5071 10.3858C13.5055 10.2894 13.4634 10.1947 13.3845 10.11C13.3056 10.0253 13.1923 9.95327 13.0546 9.90017C12.9169 9.84708 12.7589 9.81457 12.5947 9.80551C12.4304 9.79645 12.2649 9.81112 12.1126 9.84822C11.9603 9.88532 11.8259 9.94372 11.7213 10.0183C11.6167 10.0928 11.545 10.1813 11.5126 10.2758C11.4801 10.3704 11.4879 10.4681 11.5353 10.5605C11.5827 10.6529 11.6681 10.737 11.7842 10.8056L11.7873 10.8069Z" fill="#0B113E"/>
</svg>
