<svg width="26" height="26" viewBox="0 0 26 26" fill="none" xmlns="http://www.w3.org/2000/svg">
<path d="M13.6305 10.2075C12.4454 10.375 11.4104 11.4876 11.4004 11.4976C11.3855 11.513 11.3687 11.5264 11.3504 11.5376C9.7403 12.5826 8.83275 11.7876 8.79525 11.7401C7.7652 10.8125 8.71025 9.25745 8.75025 9.19244C9.17218 8.49116 9.68312 7.84744 10.2703 7.27734H5.8976L4 13.5377C4.02038 13.549 4.03893 13.5633 4.055 13.5802C7.00016 16.9103 10.9104 19.8655 12.4529 20.9806C12.6135 21.0993 12.8131 21.1526 13.0115 21.1297C13.2098 21.1068 13.3921 21.0094 13.5213 20.8573C13.6506 20.7051 13.7173 20.5096 13.7079 20.3101C13.6984 20.1107 13.6136 19.9223 13.4705 19.783L11.3479 17.6604C11.3013 17.6135 11.2752 17.5502 11.2752 17.4841C11.2752 17.4181 11.3013 17.3547 11.3479 17.3079C11.3711 17.2844 11.3988 17.2658 11.4292 17.2531C11.4597 17.2405 11.4924 17.2339 11.5254 17.2339C11.5584 17.2339 11.5911 17.2405 11.6215 17.2531C11.652 17.2658 11.6797 17.2844 11.7029 17.3079L12.833 18.4379L13.833 19.438L14.333 19.9505C14.5124 20.1252 14.7531 20.2227 15.0035 20.2221C15.2539 20.2215 15.4941 20.1228 15.6726 19.9472C15.8511 19.7717 15.9538 19.5331 15.9585 19.2828C15.9633 19.0324 15.8698 18.7902 15.6981 18.6079L13.7505 16.5753L13.3805 16.1928C13.3571 16.1696 13.3385 16.1419 13.3258 16.1115C13.3131 16.081 13.3065 16.0483 13.3065 16.0153C13.3065 15.9823 13.3131 15.9496 13.3258 15.9192C13.3385 15.8887 13.3571 15.861 13.3805 15.8378C13.4037 15.8144 13.4314 15.7958 13.4619 15.7831C13.4923 15.7704 13.525 15.7638 13.558 15.7638C13.591 15.7638 13.6237 15.7704 13.6542 15.7831C13.6846 15.7958 13.7123 15.8144 13.7355 15.8378L16.5782 18.7879C16.7158 18.9242 16.8901 19.0175 17.0797 19.0566C17.2694 19.0957 17.4664 19.0789 17.6467 19.0082C17.827 18.9375 17.9829 18.816 18.0954 18.6584C18.208 18.5008 18.2724 18.3139 18.2807 18.1204C18.2849 17.9841 18.2603 17.8484 18.2086 17.7222C18.157 17.596 18.0793 17.4821 17.9807 17.3879L16.2756 15.7378L15.0881 14.5852C15.0616 14.5632 15.04 14.5359 15.0246 14.5051C15.0092 14.4743 15.0004 14.4407 14.9986 14.4063C14.9968 14.3719 15.0021 14.3375 15.0142 14.3053C15.0263 14.2731 15.045 14.2437 15.069 14.219C15.093 14.1943 15.1218 14.1748 15.1537 14.1618C15.1855 14.1488 15.2198 14.1425 15.2542 14.1433C15.2886 14.1441 15.3225 14.152 15.3537 14.1666C15.3849 14.1811 15.4128 14.2019 15.4356 14.2277L18.8108 17.4954C18.8993 17.5863 19.0053 17.6584 19.1224 17.7072C19.2395 17.7561 19.3653 17.7807 19.4922 17.7796C19.6191 17.7786 19.7444 17.7518 19.8607 17.701C19.977 17.6502 20.0818 17.5764 20.1688 17.484C20.2557 17.3916 20.3231 17.2826 20.3668 17.1635C20.4106 17.0443 20.4297 16.9176 20.4231 16.7909C20.4165 16.6642 20.3844 16.5401 20.3286 16.4261C20.2727 16.3122 20.1944 16.2107 20.0983 16.1278L13.6305 10.2075Z" fill="#0B113E"/>
<path d="M5.13522 5.81169C3.8373 5.22817 2.42203 4.95265 1 5.00665V14.8122H2.52758C2.69062 14.8125 2.84934 14.7598 2.97971 14.6619C3.11008 14.564 3.20501 14.4263 3.25012 14.2696L5.54524 6.71174C5.5977 6.53751 5.58503 6.35014 5.5096 6.18456C5.43416 6.01897 5.30111 5.88645 5.13522 5.81169Z" fill="#8F92A6"/>
<path d="M14.4401 6.29588C13.901 6.07393 13.2985 6.06057 12.7501 6.25837C11.7925 6.60839 10.3949 7.44844 9.16736 9.45354C9.16736 9.46854 8.39982 10.7036 9.12236 11.3686C9.14736 11.3911 9.7924 11.9312 11.0425 11.1336C11.2225 10.9461 12.35 9.81606 13.6826 9.69355C13.717 9.69066 13.7517 9.69495 13.7844 9.70614C13.8171 9.71733 13.8472 9.73518 13.8726 9.75856L20.4255 15.7589C20.4555 15.7864 20.483 15.8164 20.5105 15.8464C21.2605 15.7314 21.7605 15.0463 21.9055 14.7963L19.5304 8.32348L14.4401 6.29588Z" fill="#0B113E"/>
<path d="M24.4997 6.19946C23.0736 6.18999 21.6592 6.45657 20.3345 6.9845C20.1563 7.06085 20.0146 7.2032 19.9391 7.38172C19.8636 7.56023 19.8602 7.76104 19.9295 7.94205L22.7121 15.515C22.7664 15.661 22.8639 15.7871 22.9917 15.8764C23.1194 15.9658 23.2713 16.0141 23.4271 16.015H24.9997V6.21196C24.8747 6.20446 24.7022 6.19946 24.4997 6.19946Z" fill="#8F92A6"/>
</svg>
