<svg width="26" height="26" viewBox="0 0 26 26" fill="none" xmlns="http://www.w3.org/2000/svg">
<path d="M13.9161 6.25842C13.6498 6.06263 13.3279 5.95703 12.9973 5.95703C12.6667 5.95703 12.3448 6.06263 12.0784 6.25842C9.44115 8.27324 6.26088 11.0883 4.03986 13.1613C3.94385 15.6776 4.03027 18.1976 4.29842 20.7015C4.47359 22.2128 5.92281 23.662 7.43409 23.8372C11.1317 24.2334 14.861 24.2334 18.5586 23.8372C20.0698 23.662 21.5191 22.2128 21.6942 20.7015C21.9624 18.1979 22.0488 15.6781 21.9528 13.1619C19.735 11.0876 16.5522 8.27259 13.9161 6.25842Z" fill="#0B113E"/>
<path d="M12.9954 11.1621C9.94903 11.1621 7.47949 13.6316 7.47949 16.678C7.47949 19.7244 9.94903 22.1939 12.9954 22.1939C16.0418 22.1939 18.5113 19.7244 18.5113 16.678C18.5113 13.6316 16.0418 11.1621 12.9954 11.1621Z" fill="white"/>
<path d="M12.21 16.0084C12.4191 16.1294 12.7019 16.1969 12.9962 16.1962C13.5405 16.1965 14.0725 16.291 14.5251 16.4677C14.9777 16.6444 15.3307 16.8955 15.5397 17.1892C15.7487 17.483 15.8043 17.8063 15.6995 18.1185C15.5947 18.4306 15.3342 18.7177 14.9508 18.9435C14.6333 19.1277 14.245 19.2647 13.8184 19.3432V19.6429C13.8184 19.7703 13.7318 19.8925 13.5776 19.9827C13.4234 20.0728 13.2143 20.1234 12.9962 20.1234C12.7782 20.1234 12.5691 20.0728 12.4149 19.9827C12.2607 19.8925 12.1741 19.7703 12.1741 19.6429V19.3432C11.6128 19.2416 11.122 19.0376 10.7736 18.7611C10.4252 18.4845 10.2376 18.15 10.2383 17.8066C10.2452 17.6819 10.3348 17.5637 10.4881 17.4769C10.6415 17.3901 10.8466 17.3416 11.06 17.3416C11.2735 17.3416 11.4786 17.3901 11.6319 17.4769C11.7853 17.5637 11.8749 17.6819 11.8818 17.8066C11.8825 17.9798 12.0005 18.1457 12.21 18.2682C12.4247 18.3848 12.7073 18.4494 13.0004 18.4487C13.2936 18.4481 13.5753 18.3823 13.7885 18.2647C13.9952 18.1429 14.1111 17.9782 14.1107 17.8066C14.1103 17.633 13.9923 17.4665 13.7825 17.3436C13.5733 17.2226 13.2905 17.155 12.9962 17.1558C12.4519 17.1554 11.92 17.0609 11.4674 16.8842C11.0148 16.7075 10.6618 16.4565 10.4528 16.1627C10.2438 15.869 10.1882 15.5456 10.293 15.2335C10.3978 14.9213 10.6583 14.6342 11.0417 14.4084C11.3591 14.2243 11.7474 14.0872 12.1741 14.0088V13.7091C12.1741 13.5816 12.2607 13.4594 12.4149 13.3693C12.5691 13.2791 12.7782 13.2285 12.9962 13.2285C13.2143 13.2285 13.4234 13.2791 13.5776 13.3693C13.7318 13.4594 13.8184 13.5816 13.8184 13.7091V14.0088C14.3779 14.1116 14.8669 14.3157 15.2148 14.5917C15.5628 14.8676 15.7517 15.201 15.7542 15.5438C15.7542 15.6714 15.6674 15.7939 15.513 15.8841C15.3586 15.9744 15.1491 16.0251 14.9307 16.0251C14.7123 16.0251 14.5029 15.9744 14.3485 15.8841C14.194 15.7939 14.1073 15.6714 14.1073 15.5438C14.1055 15.4374 14.0591 15.3329 13.972 15.2395C13.885 15.1461 13.76 15.0666 13.608 15.008C13.4561 14.9494 13.2819 14.9136 13.1007 14.9036C12.9195 14.8936 12.7368 14.9098 12.5688 14.9507C12.4008 14.9916 12.2526 15.0561 12.1372 15.1383C12.0218 15.2206 11.9427 15.3181 11.9069 15.4224C11.8711 15.5267 11.8798 15.6346 11.932 15.7365C11.9842 15.8384 12.0785 15.9312 12.2065 16.0069L12.21 16.0084Z" fill="#0B113E"/>
<path opacity="0.3" d="M22.9694 12.2257C22.7068 12.2262 22.454 12.126 22.2629 11.9458C20.0419 9.85151 16.6806 6.86257 13.9154 4.75273C13.649 4.55694 13.3271 4.45134 12.9965 4.45134C12.6659 4.45134 12.344 4.55694 12.0777 4.75273C9.31495 6.86322 5.95434 9.85215 3.72945 11.9465C3.52972 12.1304 3.2655 12.2281 2.99415 12.2184C2.72281 12.2087 2.46624 12.0924 2.28017 11.8946C2.0941 11.6969 1.99353 11.4338 2.00032 11.1623C2.00711 10.8909 2.1207 10.6331 2.31642 10.4449C3.4153 9.41066 7.2717 5.82963 10.8249 3.11541C12.0828 2.15163 13.9095 2.15163 15.1687 3.11541C18.7239 5.83028 22.5784 9.41131 23.6759 10.4443C23.8263 10.5858 23.9306 10.7693 23.9754 10.9709C24.0202 11.1725 24.0035 11.3828 23.9274 11.5748C23.8513 11.7668 23.7192 11.9314 23.5484 12.0475C23.3776 12.1635 23.1759 12.2256 22.9694 12.2257Z" fill="#0B113E"/>
<path opacity="0.3" d="M21.1948 8.16727C21.2413 6.82664 21.2335 3.18484 21.1721 2.60826C21.1486 2.46937 21.0825 2.34123 20.9829 2.24163C20.8833 2.14202 20.7551 2.07587 20.6162 2.05236C19.9611 1.98255 19.3005 1.98255 18.6454 2.05236C18.5066 2.07605 18.3785 2.14226 18.2789 2.24183C18.1794 2.34141 18.1132 2.46944 18.0895 2.60826C18.0565 2.92241 18.0384 4.15185 18.0371 5.42073C19.1812 6.38321 20.2698 7.33729 21.1948 8.16727Z" fill="#0B113E"/>
</svg>
