<svg width="26" height="26" viewBox="0 0 26 26" fill="none" xmlns="http://www.w3.org/2000/svg">
<path d="M14.7879 2.72814C14.1922 2.28576 13.4752 2.03669 12.7336 2.01451C10.5725 1.96228 8.41032 2.05111 6.26081 2.28042C4.82551 2.44739 3.44896 3.82641 3.28199 5.25924C2.906 8.7841 2.906 15.3218 3.28199 18.8442C3.44896 20.2801 4.82798 21.6567 6.26081 21.823C9.77313 22.1996 13.3157 22.1996 16.828 21.823C18.2639 21.6567 19.6404 20.2801 19.8068 18.8442C20.0634 16.4448 20.1451 12.646 20.0542 9.35426V9.34066C20.0488 8.63114 19.8191 7.9415 19.398 7.37044C18.0995 5.6034 16.5459 4.03891 14.7879 2.72814Z" fill="#0B113E"/>
<path d="M20.0527 9.35538C19.7787 9.36218 19.5048 9.36713 19.2333 9.36713C18.0765 9.36647 16.9205 9.30455 15.7703 9.18161H15.7604C15.0752 9.10184 14.3999 8.76234 13.8638 8.22433C13.3276 7.68633 12.9863 7.01351 12.9065 6.32771C12.9068 6.32441 12.9068 6.32111 12.9065 6.31781C12.7545 4.8891 12.6967 3.45193 12.7333 2.01562C13.475 2.03799 14.1921 2.28728 14.7877 2.72987C16.5491 4.04369 18.1052 5.61245 19.4046 7.38455C19.8226 7.95267 20.0491 8.63895 20.0514 9.34425L20.0527 9.35538Z" fill="#8F92A6"/>
<path d="M12.0883 14.5654C12.0883 14.6445 12.0746 14.7229 12.0481 14.796C12.0216 14.8691 11.9827 14.9355 11.9338 14.9915C11.8848 15.0474 11.8266 15.0918 11.7626 15.1221C11.6986 15.1524 11.63 15.168 11.5607 15.168H5.63598C5.49606 15.168 5.36187 15.1045 5.26292 14.9915C5.16398 14.8785 5.1084 14.7252 5.1084 14.5654C5.1084 14.4055 5.16398 14.2523 5.26292 14.1393C5.36187 14.0262 5.49606 13.9628 5.63598 13.9628H11.5607C11.63 13.9628 11.6986 13.9783 11.7626 14.0086C11.8266 14.0389 11.8848 14.0833 11.9338 14.1393C11.9827 14.1952 12.0216 14.2616 12.0481 14.3348C12.0746 14.4079 12.0883 14.4862 12.0883 14.5654ZM5.63598 12.1426H13.8155C13.9555 12.1426 14.0897 12.0792 14.1886 11.9661C14.2875 11.8531 14.3431 11.6999 14.3431 11.54C14.3431 11.3802 14.2875 11.2269 14.1886 11.1139C14.0897 11.0009 13.9555 10.9374 13.8155 10.9374H5.63598C5.49606 10.9374 5.36187 11.0009 5.26292 11.1139C5.16398 11.2269 5.1084 11.3802 5.1084 11.54C5.1084 11.6999 5.16398 11.8531 5.26292 11.9661C5.36187 12.0792 5.49606 12.1426 5.63598 12.1426ZM5.63598 9.11732H11.1776C11.3175 9.11732 11.4517 9.05383 11.5507 8.94082C11.6496 8.82781 11.7052 8.67454 11.7052 8.51471C11.7052 8.35489 11.6496 8.20162 11.5507 8.08861C11.4517 7.9756 11.3175 7.91211 11.1776 7.91211H5.63598C5.49606 7.91211 5.36187 7.9756 5.26292 8.08861C5.16398 8.20162 5.1084 8.35489 5.1084 8.51471C5.1084 8.67454 5.16398 8.82781 5.26292 8.94082C5.36187 9.05383 5.49606 9.11732 5.63598 9.11732Z" fill="white"/>
<path d="M18.125 15.169C17.9968 15.0744 17.8419 15.0234 17.6828 15.0234C17.5237 15.0234 17.3687 15.0744 17.2405 15.169C15.9713 16.1424 14.4407 17.5023 13.3718 18.5037C13.3256 19.7193 13.3671 20.9367 13.4962 22.1463C13.5805 22.8764 14.278 23.5765 15.0053 23.6611C16.7849 23.8525 18.5797 23.8525 20.3593 23.6611C21.0866 23.5765 21.7841 22.8764 21.8684 22.1463C21.9974 20.9368 22.039 19.7195 21.9928 18.504C20.9255 17.502 19.3936 16.1421 18.125 15.169Z" fill="#5C607E"/>
<path d="M21.6255 16.816C21.6471 16.1707 21.6435 14.4179 21.6149 14.1404C21.604 14.0736 21.5732 14.0119 21.5268 13.964C21.4804 13.916 21.4208 13.8842 21.3561 13.8729C21.0511 13.8393 20.7435 13.8393 20.4385 13.8729C20.3738 13.8843 20.3142 13.9161 20.2679 13.9641C20.2215 14.012 20.1907 14.0736 20.1797 14.1404C20.1643 14.2916 20.1559 14.8833 20.1553 15.4941C20.688 15.9573 21.1948 16.4165 21.6255 16.816Z" fill="#3C4165"/>
<path d="M22.5015 18.7949C22.3745 18.7951 22.2522 18.7466 22.1599 18.6593C21.0861 17.6452 19.461 16.1978 18.124 15.1761C17.9953 15.0813 17.8396 15.0302 17.6798 15.0302C17.52 15.0302 17.3643 15.0813 17.2356 15.1761C15.8999 16.1981 14.2751 17.6455 13.1994 18.6596C13.1029 18.7487 12.9751 18.796 12.8439 18.7913C12.7127 18.7866 12.5887 18.7303 12.4987 18.6345C12.4088 18.5388 12.3602 18.4114 12.3634 18.2799C12.3667 18.1485 12.4216 18.0236 12.5163 17.9325C13.0475 17.4317 14.912 15.6976 16.6299 14.3832C17.2381 13.9165 18.1212 13.9165 18.73 14.3832C20.4489 15.6979 22.3124 17.432 22.843 17.9322C22.9157 18.0008 22.9661 18.0896 22.9878 18.1872C23.0095 18.2848 23.0014 18.3867 22.9646 18.4797C22.9278 18.5726 22.864 18.6523 22.7814 18.7085C22.6988 18.7647 22.6013 18.7948 22.5015 18.7949Z" fill="#3C4165"/>
<path d="M18.6874 18.8479C18.0394 18.7773 17.3857 18.7773 16.7377 18.8479C16.4708 18.8791 16.2185 19.1375 16.1878 19.4072C16.1216 20.0386 16.1184 22.9644 16.1789 23.8039C17.055 23.7738 17.95 23.8984 18.8258 23.8039C18.9811 23.7849 19.1116 23.7964 19.2586 23.7421C19.3031 22.6559 19.2969 19.9766 19.2373 19.4072C19.2066 19.1375 18.9526 18.8791 18.6874 18.8479Z" fill="white"/>
</svg>
