<svg width="90" height="30" viewBox="0 0 90 30" fill="none" xmlns="http://www.w3.org/2000/svg">
<g clip-path="url(#clip0_1139_16934)">
<path fill-rule="evenodd" clip-rule="evenodd" d="M15.0899 4.97412L24.2502 30H18.7646L17.0368 24.8553H7.17116L5.51128 30H0L9.04853 4.97412H15.0899ZM8.54922 20.6351H15.6207L12.094 9.98414L8.54922 20.6351Z" fill="#005B7A"/>
<path fill-rule="evenodd" clip-rule="evenodd" d="M31.5879 4.97241H43.568C48.8346 4.97241 51.5533 7.23235 51.5533 11.3014C51.5533 13.8038 50.57 15.5148 48.5159 16.4551C51.1696 17.5025 52.4474 19.4485 52.4474 22.3839C52.4474 27.1463 49.1896 29.9998 43.1859 29.9998H31.5879V4.97241ZM42.5825 14.6455C45.0851 14.6455 46.2949 13.8466 46.2949 11.9259C46.2949 9.98583 45.0625 9.32228 42.5417 9.32228H36.6106V14.6455H42.5825ZM42.7894 25.4779C45.6546 25.4779 47.0093 24.5257 47.0093 22.236C47.0093 19.7931 45.6546 18.9212 42.7577 18.9212H36.6106V25.4779H42.7894Z" fill="#005B7A"/>
<path fill-rule="evenodd" clip-rule="evenodd" d="M72.7 4.97241L81.8664 29.9983H76.3838L74.6469 24.8536H64.7843L63.1229 29.9983H57.6191L66.6556 4.97241H72.7ZM66.162 20.6334H73.2335L69.7038 9.98242L66.162 20.6334Z" fill="#005B7A"/>
<path fill-rule="evenodd" clip-rule="evenodd" d="M84.2227 9.94432H89.1313V0H84.2227V9.94432Z" fill="#ED1C24"/>
</g>
<defs>
<clipPath id="clip0_1139_16934">
<rect width="90" height="30" fill="white"/>
</clipPath>
</defs>
</svg>
