<svg width="100" height="42" viewBox="0 0 100 42" fill="none" xmlns="http://www.w3.org/2000/svg">
<mask id="mask0_1157_17310" style="mask-type:luminance" maskUnits="userSpaceOnUse" x="8" y="7" width="84" height="28">
<path d="M92 7H8V35H92V7Z" fill="white"/>
</mask>
<g mask="url(#mask0_1157_17310)">
<path fill-rule="evenodd" clip-rule="evenodd" d="M22.0839 11.6426L30.6335 35.0001H25.5136L23.901 30.1983H14.6931L13.1439 35.0001H8L16.4453 11.6426H22.0839ZM15.9793 26.2595H22.5793L19.2877 16.3186L15.9793 26.2595Z" fill="#005B7A"/>
<path fill-rule="evenodd" clip-rule="evenodd" d="M37.4824 11.6406H48.6639C53.5793 11.6406 56.1168 13.7498 56.1168 17.5476C56.1168 19.8832 55.1991 21.4801 53.2819 22.3577C55.7587 23.3353 56.9513 25.1516 56.9513 27.8913C56.9513 32.3362 53.9107 34.9995 48.3072 34.9995H37.4824V11.6406ZM47.7441 20.6688C50.0798 20.6688 51.209 19.9231 51.209 18.1305C51.209 16.3198 50.0587 15.7004 47.706 15.7004H42.1703V20.6688H47.7441ZM47.9372 30.779C50.6113 30.779 51.8757 29.8903 51.8757 27.7533C51.8757 25.4732 50.6113 24.6594 47.9076 24.6594H42.1703V30.779H47.9372Z" fill="#005B7A"/>
<path fill-rule="evenodd" clip-rule="evenodd" d="M75.8528 11.6406L84.4082 34.9981H79.2911L77.67 30.1963H68.4649L66.9142 34.9981H61.7773L70.2114 11.6406H75.8528ZM69.7507 26.2575H76.3508L73.0564 16.3166L69.7507 26.2575Z" fill="#005B7A"/>
<path fill-rule="evenodd" clip-rule="evenodd" d="M86.6074 16.2814H91.1888V7H86.6074V16.2814Z" fill="#ED1C24"/>
</g>
</svg>
