<svg width="100" height="42" viewBox="0 0 100 42" fill="none" xmlns="http://www.w3.org/2000/svg">
<path d="M34.2972 29.4469C34.2647 29.4098 34.216 29.3913 34.151 29.3913H34.0536L33.8842 29.4121L33.7891 28.5003C34.0118 28.3797 34.2902 28.3193 34.6243 28.3193C35.0698 28.3193 35.4248 28.4214 35.6893 28.6256C35.9538 28.8298 36.086 29.15 36.086 29.5862V32.8019H34.3436V29.5862C34.3436 29.5305 34.3273 29.4841 34.2949 29.4469H34.2972Z" fill="#193C6C"/>
<path d="M12.1322 24.2339C12.3689 24.517 12.4872 24.9392 12.4872 25.4984C12.4872 26.8163 11.8654 27.4729 10.6264 27.4729C10.0302 27.4729 9.57308 27.3244 9.25522 27.0251C8.93735 26.7258 8.77958 26.2896 8.77958 25.7119V21.7328C8.77958 21.4474 8.65197 21.2641 8.39675 21.1782L8 21.039V19.1318C8 18.4404 8.34571 18.0947 9.03712 18.0947H12.1508V19.6724H9.73317C9.61948 19.6724 9.54292 19.6887 9.5058 19.7212C9.46867 19.7537 9.44779 19.814 9.44779 19.8998V20.2966C9.8167 20.3824 10.1299 20.5332 10.3851 20.7513C10.6404 20.9694 10.768 21.2246 10.768 21.5193V23.8348C10.8631 23.8163 10.9953 23.807 11.1647 23.807C11.5731 23.807 11.8933 23.9485 12.1299 24.2339H12.1322ZM11.1949 26.1017C11.2529 25.9833 11.2807 25.7954 11.2807 25.5402C11.2807 25.3128 11.2459 25.1504 11.174 25.0506C11.1021 24.9508 10.9768 24.9021 10.7981 24.9021H10.6427V25.9532C10.6427 26.1713 10.7378 26.2803 10.9257 26.2803C11.0487 26.2803 11.1392 26.22 11.1949 26.1017Z" fill="#193C6C"/>
<path d="M20.4623 19.7209C20.4252 19.7534 20.4043 19.8137 20.4043 19.8996V20.2963C20.8497 20.3822 21.2604 20.5423 21.634 20.7789C22.0075 21.0156 22.1954 21.2917 22.1954 21.6026V25.7093C22.1954 26.287 22.0377 26.7255 21.7198 27.0225C21.4019 27.3218 20.9449 27.4703 20.3486 27.4703C19.7523 27.4703 19.2558 27.3079 18.9495 26.9808C18.6409 26.6536 18.4878 26.1594 18.4878 25.4959C18.4878 24.946 18.6038 24.5283 18.8358 24.2383C19.0678 23.9483 19.388 23.8044 19.7964 23.8044C19.9658 23.8044 20.105 23.8137 20.2094 23.8323V23.7743H20.2233V23.12H17.1119V25.707C17.1119 26.2847 16.9542 26.7232 16.6363 27.0202C16.3184 27.3195 15.8614 27.468 15.2651 27.468C14.6688 27.468 14.1723 27.3056 13.866 26.9784C13.5574 26.6513 13.4043 26.1571 13.4043 25.4935C13.4043 24.9436 13.5203 24.526 13.7523 24.236C13.9843 23.946 14.3045 23.8021 14.7106 23.8021C14.8799 23.8021 15.0191 23.8114 15.1235 23.83V21.7836C15.1235 21.6328 15.0331 21.5051 14.8544 21.4007C14.6734 21.2963 14.4762 21.2221 14.2581 21.1734L13.8753 21.0759V19.127C13.8753 18.4356 14.221 18.0898 14.9124 18.0898H17.272V19.6676H15.6085C15.4948 19.6676 15.4182 19.6838 15.3811 19.7163C15.344 19.7488 15.3231 19.8091 15.3231 19.8949V20.2917C15.7686 20.3775 16.1792 20.5376 16.5528 20.7743C16.9263 21.0109 17.1143 21.287 17.1143 21.598V22.0666H20.2256V21.7836C20.2256 21.6328 20.1328 21.5075 19.9495 21.4077C19.7639 21.3079 19.5644 21.229 19.3463 21.1734L18.9634 21.0736V19.127C18.9634 18.4356 19.3091 18.0898 20.0006 18.0898H22.3741V19.6676H20.6966C20.5829 19.6676 20.5064 19.6838 20.4692 19.7163L20.4623 19.7209ZM15.2465 25.9529V24.9019H15.0771C14.8962 24.9019 14.7709 24.9506 14.7013 25.0504C14.6293 25.1501 14.5945 25.3126 14.5945 25.5399C14.5945 25.7952 14.6224 25.9831 14.6804 26.1014C14.7361 26.2197 14.8266 26.2801 14.9495 26.2801C15.1491 26.2801 15.2488 26.171 15.2488 25.9529H15.2465ZM20.3323 25.9529V24.9019H20.1769C19.9959 24.9019 19.8706 24.9506 19.801 25.0504C19.7291 25.1501 19.6943 25.3126 19.6943 25.5399C19.6943 25.7952 19.7198 25.9831 19.7732 26.1014C19.8242 26.2197 19.9124 26.2801 20.0354 26.2801C20.2349 26.2801 20.3347 26.171 20.3347 25.9529H20.3323Z" fill="#193C6C"/>
<path d="M34.8179 19.7206C34.7808 19.753 34.7599 19.8134 34.7599 19.8992V20.296C35.1288 20.3818 35.4397 20.5326 35.6903 20.7507C35.9408 20.9688 36.0661 21.224 36.0661 21.5187V24.4189C36.0661 25.4885 35.79 26.2658 35.2355 26.7484C34.681 27.231 33.7877 27.4723 32.558 27.4723C31.3283 27.4723 30.4327 27.231 29.8782 26.7484C29.3237 26.2658 29.0476 25.4885 29.0476 24.4189V23.3818C29.0476 22.9734 28.9246 22.6765 28.6787 22.4862C28.4328 22.296 28.043 22.2032 27.514 22.2032C26.985 22.2032 26.6091 22.2983 26.3632 22.4862C26.1172 22.6765 25.9942 22.9734 25.9942 23.3818V23.8644C26.1543 23.8273 26.3168 23.8064 26.4768 23.8064C26.913 23.8064 27.2564 23.9502 27.507 24.2403C27.7576 24.5303 27.8829 24.9479 27.8829 25.4978C27.8829 26.1614 27.7181 26.6556 27.3933 26.9827C27.0662 27.3099 26.572 27.4723 25.9084 27.4723C25.2936 27.4723 24.8226 27.3238 24.4954 27.0245C24.1683 26.7252 24.0059 26.2843 24.0059 25.695V23.521C24.0059 22.811 24.1543 22.2356 24.4537 21.7948C24.753 21.354 25.21 21.0384 25.8249 20.8505C25.6741 20.7739 25.5117 20.7229 25.3423 20.695L24.9595 20.6185V19.1312C24.9595 18.4398 25.3052 18.0941 25.9966 18.0941H29.4792V19.6718H26.6949C26.5813 19.6718 26.5047 19.6881 26.4676 19.7206C26.4304 19.753 26.4096 19.8134 26.4096 19.8992V20.2681C26.7506 20.3354 27.0499 20.4584 27.3052 20.637H27.5186C28.7228 20.637 29.6091 20.8737 30.1822 21.347C30.7553 21.8203 31.043 22.5465 31.043 23.521V24.5581C31.043 25.0314 31.1636 25.3725 31.4049 25.5813C31.6462 25.7901 32.0313 25.8945 32.5627 25.8945C33.094 25.8945 33.4791 25.7901 33.7204 25.5813C33.9617 25.3725 34.0824 25.0314 34.0824 24.5581V21.7298C34.0824 21.579 34.0522 21.4584 33.9896 21.3679C33.9269 21.2774 33.8318 21.2148 33.6972 21.1753L33.3005 21.0755V19.1289C33.3005 18.4375 33.6462 18.0918 34.3376 18.0918H36.442V19.6695H35.0499C34.9362 19.6695 34.8596 19.6858 34.8225 19.7182L34.8179 19.7206ZM26.4699 25.05C26.398 24.9502 26.2773 24.9015 26.1079 24.9015H25.8945V25.9386C25.8945 26.166 25.9942 26.2797 26.1938 26.2797C26.3353 26.2797 26.4351 26.2217 26.4931 26.1103C26.5511 25.9966 26.5789 25.8064 26.5789 25.5419C26.5789 25.3145 26.5441 25.1521 26.4722 25.0523L26.4699 25.05Z" fill="#193C6C"/>
<path d="M36.435 13.3193V16.8158H31.0197C30.4049 16.8158 29.9316 16.6859 29.6067 16.4237C29.2796 16.1639 29.1172 15.8019 29.1172 15.3379C29.1172 14.7787 29.3608 14.3193 29.848 13.9597C30.3353 13.6001 31.0105 13.4191 31.8736 13.4191C33.0476 13.4191 34.1427 13.8321 35.1566 14.6558V13.3193H36.435ZM34.5882 15.6627C34.1056 15.3704 33.6601 15.1569 33.2517 15.0223C32.8434 14.8901 32.3933 14.8228 31.9014 14.8228C31.5789 14.8228 31.3306 14.8715 31.1543 14.9713C30.978 15.0711 30.8921 15.2056 30.8921 15.3773C30.8921 15.5676 31.0197 15.6604 31.275 15.6604H34.5858L34.5882 15.6627Z" fill="#193C6C"/>
<path d="M48.7675 19.7204C48.728 19.7528 48.7095 19.8132 48.7095 19.899V20.2958C49.0784 20.3816 49.3893 20.5324 49.6399 20.7505C49.8904 20.9686 50.0157 21.2238 50.0157 21.5185V24.4187C50.0157 25.4883 49.7396 26.2656 49.1851 26.7482C48.6306 27.2308 47.7373 27.4721 46.5053 27.4721C45.2733 27.4721 44.38 27.2308 43.8255 26.7482C43.271 26.2656 42.9949 25.4883 42.9949 24.4187V20.9222C42.9949 20.4489 42.8719 20.1055 42.626 19.892C42.38 19.6786 41.9902 19.5719 41.4612 19.5719C40.9322 19.5719 40.5564 19.6786 40.3104 19.892C40.0645 20.1055 39.9415 20.4489 39.9415 20.9222V23.8642C40.1016 23.8271 40.264 23.8062 40.4241 23.8062C40.8603 23.8062 41.2037 23.95 41.4543 24.2401C41.7049 24.5301 41.8301 24.9477 41.8301 25.4976C41.8301 26.1612 41.6677 26.6554 41.3406 26.9825C41.0134 27.3096 40.5192 27.4721 39.8557 27.4721C39.2408 27.4721 38.7698 27.3236 38.4427 27.0243C38.1155 26.725 37.9531 26.2841 37.9531 25.6948V21.0614C37.9531 19.9918 38.2292 19.2122 38.7837 18.725C39.3383 18.2378 40.2315 17.9941 41.4636 17.9941C42.6956 17.9941 43.5888 18.2378 44.1503 18.725C44.7095 19.2122 44.9879 19.9918 44.9879 21.0614V24.5579C44.9879 25.0312 45.1086 25.3723 45.3498 25.5811C45.5911 25.7899 45.9786 25.8943 46.5076 25.8943C47.0366 25.8943 47.4241 25.7899 47.6654 25.5811C47.9067 25.3723 48.0273 25.0312 48.0273 24.5579V21.7296C48.0273 21.5788 47.9972 21.4582 47.9345 21.3677C47.8719 21.2772 47.7768 21.2145 47.6422 21.1751L47.2454 21.0893V19.1287C47.2454 18.4373 47.5911 18.0916 48.2825 18.0916H50.387V19.6693H48.9948C48.8812 19.6693 48.8046 19.6855 48.7675 19.718V19.7204ZM40.4172 25.0498C40.3452 24.95 40.2246 24.9013 40.0552 24.9013H39.8417V25.9384C39.8417 26.1658 39.9415 26.2795 40.1411 26.2795C40.2826 26.2795 40.3824 26.2215 40.4404 26.1101C40.4984 25.9964 40.5262 25.8062 40.5262 25.5417C40.5262 25.3143 40.4914 25.1519 40.4195 25.0521L40.4172 25.0498Z" fill="#193C6C"/>
<path d="M50.3882 13.3193V16.8158H44.9729C44.358 16.8158 43.887 16.6859 43.5599 16.4237C43.2327 16.1639 43.0703 15.8019 43.0703 15.3379C43.0703 14.7787 43.3139 14.3193 43.8012 13.9597C44.2884 13.6001 44.9636 13.4191 45.8267 13.4191C47.0007 13.4191 48.0958 13.8321 49.1097 14.6558V13.3193H50.3882ZM48.5413 15.6627C48.0587 15.3704 47.6132 15.1569 47.2049 15.0223C46.7988 14.8901 46.3487 14.8228 45.8545 14.8228C45.532 14.8228 45.2838 14.8715 45.1074 14.9713C44.9334 15.0711 44.8452 15.2056 44.8452 15.3773C44.8452 15.5676 44.9729 15.6604 45.2281 15.6604H48.539L48.5413 15.6627Z" fill="#193C6C"/>
<path d="M52.8315 21.0854C52.2584 20.7211 51.9707 20.2153 51.9707 19.5726C51.9707 19.09 52.1122 18.7095 52.3976 18.4357C52.683 18.1619 53.0983 18.0227 53.6482 18.0227C54.0078 18.0227 54.3094 18.0552 54.5507 18.1225C54.792 18.1898 54.9846 18.2687 55.2607 18.438L54.7758 19.4102C54.625 19.3127 54.4254 19.2315 54.3025 19.2315C54.1888 19.2315 54.1006 19.2617 54.0403 19.3244C53.98 19.387 53.9475 19.4682 53.9475 19.5726C53.9475 19.7814 54.0681 19.9462 54.3094 20.0691C54.5507 20.1921 54.8802 20.2547 55.2978 20.2547C55.9707 20.2547 56.4974 20.0575 56.8756 19.6654C57.2537 19.271 57.444 18.7582 57.444 18.1225V16.6074H59.321V18.1225C59.321 18.8812 59.1424 19.5216 58.7874 20.0482C58.4324 20.5749 57.9452 20.9694 57.3234 21.2339C56.7015 21.4984 55.9985 21.6306 55.212 21.6306C54.1981 21.6306 53.4046 21.4473 52.8315 21.083V21.0854ZM52.0009 27.373V22.7327H53.9893V25.5099L55.6598 23.9833L57.3303 25.5099V22.7327H59.321V27.373H57.3303L55.6528 25.8232L53.9893 27.373H52.0009Z" fill="#193C6C"/>
<path d="M60.5566 19.6724V18.0947C61.7121 18.0947 62.2713 18.3523 62.8351 18.8697C63.3989 19.3871 63.6796 20.169 63.6796 21.2223V27.3754H61.6912V21.2223C61.6912 20.1898 61.5126 19.6724 60.5566 19.6724Z" fill="#193C6C"/>
<path d="M39.6843 32.33H38.6658L38.4709 32.801H37.9512L38.928 30.6084H39.4291L40.4106 32.801H39.8769L39.682 32.33H39.6843ZM39.5266 31.9448L39.1785 31.1049L38.8305 31.9448H39.5266Z" fill="#193C6C"/>
<path d="M41.2074 32.6923C41.0264 32.5949 40.8849 32.4603 40.7805 32.2886C40.676 32.1169 40.625 31.922 40.625 31.7039C40.625 31.4858 40.676 31.2909 40.7805 31.1192C40.8849 30.9475 41.0264 30.813 41.2074 30.7155C41.3883 30.6181 41.5902 30.5693 41.8176 30.5693C42.0078 30.5693 42.1795 30.6018 42.3327 30.6691C42.4858 30.7364 42.6157 30.8315 42.7201 30.9568L42.3953 31.2584C42.2468 31.0867 42.0635 31.0009 41.8431 31.0009C41.7062 31.0009 41.5856 31.0311 41.4788 31.0914C41.3721 31.1517 41.2886 31.2329 41.2306 31.3396C41.1702 31.4464 41.1424 31.567 41.1424 31.7039C41.1424 31.8408 41.1726 31.9614 41.2306 32.0682C41.2909 32.1749 41.3721 32.2584 41.4788 32.3164C41.5856 32.3767 41.7062 32.4046 41.8431 32.4046C42.0635 32.4046 42.2468 32.3187 42.3953 32.1447L42.7201 32.4464C42.6157 32.574 42.4858 32.6714 42.3327 32.7387C42.1772 32.806 42.0055 32.8385 41.8153 32.8385C41.5925 32.8385 41.3907 32.7897 41.2097 32.6923H41.2074Z" fill="#193C6C"/>
<path d="M43.2207 30.6084H43.7288V32.388H44.8286V32.801H43.2207V30.6084Z" fill="#193C6C"/>
<path d="M46.9679 32.393V32.799H45.2695V30.6064H46.9261V31.0148H45.773V31.4904H46.7916V31.8849H45.773V32.393H46.9679Z" fill="#193C6C"/>
<path d="M47.5293 30.6084H48.5247C48.7636 30.6084 48.9724 30.6548 49.1557 30.7453C49.339 30.8358 49.4806 30.9634 49.5827 31.1304C49.6847 31.2952 49.7358 31.4877 49.7358 31.7058C49.7358 31.9239 49.6847 32.1165 49.5827 32.2812C49.4806 32.446 49.339 32.5736 49.1557 32.6641C48.9724 32.7546 48.7613 32.801 48.5247 32.801H47.5293V30.6084ZM48.4991 32.3833C48.7195 32.3833 48.8936 32.323 49.0235 32.2C49.1534 32.0771 49.2184 31.9123 49.2184 31.7035C49.2184 31.4947 49.1534 31.33 49.0235 31.207C48.8936 31.084 48.7172 31.0237 48.4991 31.0237H48.0351V32.3833H48.4991Z" fill="#193C6C"/>
<path d="M51.6863 32.33H50.6677L50.4728 32.801H49.9531L50.9299 30.6084H51.4311L52.4125 32.801H51.8789L51.684 32.33H51.6863ZM51.5262 31.9448L51.1782 31.1049L50.8302 31.9448H51.5262Z" fill="#193C6C"/>
<path d="M55.747 31.859C55.819 31.9518 55.8538 32.0655 55.8538 32.2024C55.8538 32.3949 55.7795 32.5434 55.6287 32.6455C55.4802 32.7499 55.2621 32.801 54.9744 32.801H53.8398V30.6084H54.9118C55.1786 30.6084 55.3851 30.6594 55.5266 30.7615C55.6705 30.8636 55.7401 31.0028 55.7401 31.1792C55.7401 31.2859 55.7145 31.381 55.6635 31.4645C55.6125 31.5481 55.5405 31.613 55.4477 31.6618C55.573 31.7012 55.6705 31.7685 55.7424 31.8613L55.747 31.859ZM54.348 30.9889V31.5063H54.8514C54.9767 31.5063 55.0719 31.4854 55.1368 31.4413C55.2018 31.3973 55.2343 31.3323 55.2343 31.2464C55.2343 31.1606 55.2018 31.0956 55.1368 31.0539C55.0719 31.0121 54.9767 30.9889 54.8514 30.9889H54.348ZM55.2412 32.3532C55.3085 32.3091 55.3433 32.2418 55.3433 32.149C55.3433 31.968 55.2087 31.8775 54.9396 31.8775H54.348V32.4205H54.9396C55.0742 32.4205 55.1739 32.3973 55.2412 32.3555V32.3532Z" fill="#193C6C"/>
<path d="M57.8386 32.33H56.8201L56.6252 32.801H56.1055L57.0823 30.6084H57.5834L58.5649 32.801H58.0312L57.8363 32.33H57.8386ZM57.6809 31.9448L57.3328 31.1049L56.9848 31.9448H57.6809Z" fill="#193C6C"/>
<path d="M60.9647 30.6084V32.801H60.5471L59.4543 31.4692V32.801H58.9531V30.6084H59.3731L60.4636 31.9402V30.6084H60.9647Z" fill="#193C6C"/>
<path d="M62.4407 31.9402L62.1461 32.2464V32.801H61.6426V30.6084H62.1461V31.6339L63.1182 30.6084H63.682L62.7725 31.5852L63.7354 32.801H63.1437L62.4407 31.9402Z" fill="#193C6C"/>
<path d="M91.9999 21.3272C91.9999 15.0714 86.9286 10.0001 80.6728 10.0001C74.417 10.0001 69.3457 15.0714 69.3457 21.3272C69.3457 27.583 74.417 32.6543 80.6728 32.6543C86.9286 32.6543 91.9999 27.583 91.9999 21.3272Z" fill="#193C6C"/>
<path d="M87.2769 25.1405C81.5902 26.9804 75.103 24.7391 73.2631 19.0547C72.4255 16.47 70.7085 14.4166 68.5508 13.1173C74.2375 11.2774 80.3373 14.3957 82.1795 20.0825C83.0171 22.6672 85.1192 23.8458 87.2769 25.1428" fill="#CEA93A"/>
<path d="M82.4492 17.7506C82.7787 18.3748 83.0594 19.0314 83.2822 19.7181C83.6 20.6996 84.1267 21.4559 84.7949 22.1033C85.9805 21.1474 86.8413 19.7785 87.1313 18.1613C87.4214 16.5418 88.2845 15.1683 89.4747 14.2124C86.5374 13.6857 83.7137 15.2054 82.4492 17.7483V17.7506Z" fill="white"/>
<path d="M77.0918 25.292C77.3841 26.5194 78.0338 27.6748 79.0338 28.5913C80.2426 29.6957 80.9387 31.1504 81.1127 32.6586C82.5883 31.0437 83.1011 28.8859 82.6788 26.8976C81.2101 26.8117 79.8018 26.5008 78.4885 25.9672C78.0013 25.7699 77.535 25.5449 77.0918 25.292Z" fill="#CEA93A"/>
</svg>
