<svg width="24" height="24" viewBox="0 0 24 24" fill="none" xmlns="http://www.w3.org/2000/svg">
<path opacity="0.3" fill-rule="evenodd" clip-rule="evenodd" d="M10.586 2.1C10.94 1.74648 11.4136 1.53846 11.9134 1.51698C12.4132 1.49551 12.903 1.66214 13.286 1.984L13.414 2.101L15.314 4H18C18.5044 4.00009 18.9901 4.19077 19.3599 4.53384C19.7297 4.8769 19.9561 5.34702 19.994 5.85L20 6V8.686L21.9 10.586C22.2538 10.94 22.462 11.4139 22.4834 11.9139C22.5049 12.414 22.3381 12.9039 22.016 13.287L21.899 13.414L19.999 15.314V18C19.9991 18.5046 19.8086 18.9906 19.4655 19.3605C19.1224 19.7305 18.6521 19.9572 18.149 19.995L18 20H15.315L13.415 21.9C13.0609 22.2538 12.5871 22.462 12.087 22.4835C11.587 22.505 11.097 22.3382 10.714 22.016L10.587 21.9L8.68697 20H5.99997C5.49539 20.0002 5.0094 19.8096 4.63942 19.4665C4.26944 19.1234 4.04281 18.6532 4.00497 18.15L3.99997 18V15.314L2.09997 13.414C1.74616 13.06 1.53797 12.5861 1.51649 12.0861C1.49502 11.586 1.66182 11.0961 1.98397 10.713L2.09997 10.586L3.99997 8.686V6C4.00006 5.4956 4.19074 5.00986 4.53381 4.64009C4.87687 4.27032 5.34699 4.04383 5.84997 4.006L5.99997 4H8.68597L10.586 2.1Z" fill="#0B113E"/>
<path fill-rule="evenodd" clip-rule="evenodd" d="M15.0791 8.9831L10.8351 13.2271L9.06707 11.4591C8.87943 11.2716 8.62498 11.1663 8.35971 11.1664C8.09444 11.1665 7.84007 11.272 7.65257 11.4596C7.46506 11.6472 7.35977 11.9017 7.35986 12.167C7.35996 12.4322 7.46543 12.6866 7.65307 12.8741L10.0571 15.2781C10.1592 15.3803 10.2805 15.4614 10.414 15.5167C10.5475 15.572 10.6906 15.6005 10.8351 15.6005C10.9796 15.6005 11.1226 15.572 11.2561 15.5167C11.3896 15.4614 11.5109 15.3803 11.6131 15.2781L16.4931 10.3971C16.6752 10.2085 16.776 9.9559 16.7737 9.6937C16.7715 9.43151 16.6663 9.18069 16.4809 8.99529C16.2955 8.80988 16.0447 8.70471 15.7825 8.70243C15.5203 8.70015 15.2677 8.80095 15.0791 8.9831Z" fill="#0B113E"/>
</svg>
