<svg width="24" height="24" viewBox="0 0 24 24" fill="none" xmlns="http://www.w3.org/2000/svg">
<path opacity="0.3" d="M18.4998 9.00008C18.8378 9.00008 19.1638 8.95208 19.4728 8.86308C19.4908 9.07408 19.4998 9.28808 19.4998 9.50308V13.5031L20.9178 16.6631C20.9823 16.8076 21.0096 16.966 20.9973 17.1237C20.9851 17.2815 20.9336 17.4337 20.8476 17.5665C20.7615 17.6994 20.6437 17.8086 20.5047 17.8843C20.3657 17.96 20.2101 17.9998 20.0518 18.0001H3.9518C3.79333 18.0001 3.63739 17.9604 3.49817 17.8847C3.35895 17.809 3.24087 17.6997 3.1547 17.5667C3.06852 17.4337 3.01699 17.2813 3.00478 17.1233C2.99257 16.9653 3.02008 16.8067 3.0848 16.6621L4.4998 13.5021V9.49008L4.5048 9.24008C4.7058 3.49108 11.0378 0.100083 15.9348 3.11708C14.1008 5.09008 15.0898 8.31008 17.7158 8.91208C17.973 8.97087 18.236 9.00039 18.4998 9.00008Z" fill="#0B113E"/>
<path d="M18.5 8C20.425 8 21.627 5.917 20.665 4.25C20.4456 3.86996 20.13 3.55437 19.75 3.33495C19.3699 3.11553 18.9388 3.00001 18.5 3C16.575 3 15.373 5.083 16.335 6.75C16.5544 7.13004 16.87 7.44563 17.25 7.66505C17.6301 7.88447 18.0612 7.99999 18.5 8ZM14.958 19.003C14.573 21.28 11.868 22.286 10.088 20.814C9.53339 20.3553 9.16214 19.7126 9.04199 19.003H14.958Z" fill="#0B113E"/>
</svg>
