<svg width="24" height="24" viewBox="0 0 24 24" fill="none" xmlns="http://www.w3.org/2000/svg">
<path opacity="0.3" d="M12 2C17.523 2 22 6.477 22 12C22 17.523 17.523 22 12 22C6.477 22 2 17.523 2 12C2 6.477 6.477 2 12 2Z" fill="#0B113E"/>
<path d="M15.535 8.38095L10.585 13.3309L8.46503 11.2099C8.37218 11.117 8.26195 11.0433 8.14061 10.993C8.01928 10.9427 7.88923 10.9168 7.75788 10.9167C7.49261 10.9167 7.23817 11.0219 7.05053 11.2094C6.86289 11.397 6.75742 11.6513 6.75732 11.9166C6.75723 12.1819 6.86252 12.4363 7.05003 12.6239L9.80803 15.3819C9.91018 15.4841 10.0315 15.5652 10.165 15.6205C10.2984 15.6758 10.4415 15.7043 10.586 15.7043C10.7305 15.7043 10.8736 15.6758 11.0071 15.6205C11.1406 15.5652 11.2619 15.4841 11.364 15.3819L16.95 9.79595C17.0429 9.70304 17.1166 9.59274 17.1669 9.47134C17.2172 9.34995 17.2431 9.21984 17.2431 9.08845C17.2431 8.95705 17.2172 8.82694 17.1669 8.70555C17.1166 8.58416 17.0429 8.47386 16.95 8.38095C16.8571 8.28804 16.7468 8.21434 16.6254 8.16405C16.504 8.11377 16.3739 8.08789 16.2425 8.08789C16.1111 8.08789 15.981 8.11377 15.8596 8.16405C15.7382 8.21434 15.6279 8.28804 15.535 8.38095Z" fill="#0B113E"/>
</svg>
