<svg width="24" height="24" viewBox="0 0 24 24" fill="none" xmlns="http://www.w3.org/2000/svg">
<path opacity="0.3" d="M2 8V12C2 14.8284 2 16.2426 2.87868 17.1213C3.35503 17.5977 3.98877 17.8158 4.9199 17.9156C4.9939 17.8157 5.06395 17.737 5.11392 17.6821C5.23008 17.5543 5.37739 17.4091 5.5202 17.2683L7.01311 15.7962L7.56446 15.2377C7.9268 13.1151 9.77461 11.5 12.0001 11.5C14.2255 11.5 16.0733 13.1151 16.4357 15.2377L16.987 15.7962L18.48 17.2684C18.6228 17.4092 18.7701 17.5544 18.8862 17.6821C18.9362 17.737 19.0062 17.8157 19.0802 17.9156C20.0113 17.8158 20.645 17.5977 21.1213 17.1213C22 16.2426 22 14.8284 22 12V8C22 5.17157 22 3.75736 21.1213 2.87868C20.2426 2 18.8284 2 16 2H8C5.17157 2 3.75736 2 2.87868 2.87868C2 3.75736 2 5.17157 2 8Z" fill="#0B113E"/>
<path d="M7 8.75C6.58579 8.75 6.25 9.08579 6.25 9.5C6.25 9.91421 6.58579 10.25 7 10.25H17C17.4142 10.25 17.75 9.91421 17.75 9.5C17.75 9.08579 17.4142 8.75 17 8.75H7Z" fill="#0B113E"/>
<path d="M8.25 6C8.25 5.58579 8.58579 5.25 9 5.25H15C15.4142 5.25 15.75 5.58579 15.75 6C15.75 6.41421 15.4142 6.75 15 6.75H9C8.58579 6.75 8.25 6.41421 8.25 6Z" fill="#0B113E"/>
<path d="M9.00111 15.9174C9.00037 15.9449 9 15.9724 9 16C9 17.6569 10.3431 19 12 19C13.6569 19 15 17.6569 15 16C15 15.9724 14.9996 15.9449 14.9989 15.9174C14.9551 14.2987 13.6292 13 12 13C10.4467 13 9.16912 14.1805 9.01549 15.6933C9.00798 15.7672 9.00315 15.842 9.00111 15.9174Z" fill="#0B113E"/>
<path d="M7.6757 17.2495L6.59523 18.3149C6.27116 18.6345 6.10913 18.7943 6.05306 18.9296C5.92529 19.2379 6.03463 19.58 6.31283 19.7422C6.43491 19.8133 6.65512 19.8355 7.09553 19.8799C7.3442 19.9049 7.46853 19.9174 7.57266 19.9555C7.80579 20.0406 7.98715 20.2194 8.07345 20.4493C8.112 20.552 8.1247 20.6746 8.1501 20.9198C8.19509 21.3541 8.21758 21.5712 8.28977 21.6916C8.45425 21.966 8.80111 22.0738 9.1138 21.9478C9.25102 21.8925 9.41306 21.7327 9.73713 21.4131L10.8175 20.3431C9.30505 19.9323 8.10917 18.7525 7.6757 17.2495Z" fill="#0B113E"/>
<path d="M13.1826 20.3431L14.263 21.4131C14.587 21.7327 14.7491 21.8925 14.8863 21.9478C15.199 22.0738 15.5458 21.966 15.7103 21.6916C15.7825 21.5712 15.805 21.3541 15.85 20.9198C15.8754 20.6746 15.8881 20.552 15.9266 20.4493C16.013 20.2194 16.1943 20.0406 16.4274 19.9555C16.5316 19.9174 16.6559 19.9049 16.9046 19.8799C17.345 19.8355 17.5652 19.8133 17.6873 19.7422C17.9655 19.58 18.0748 19.2379 17.947 18.9296C17.891 18.7943 17.7289 18.6345 17.4049 18.3149L16.3244 17.2495C15.8909 18.7525 14.695 19.9323 13.1826 20.3431Z" fill="#0B113E"/>
</svg>
