<svg width="24" height="24" viewBox="0 0 24 24" fill="none" xmlns="http://www.w3.org/2000/svg">
<path opacity="0.3" d="M15.9998 12.6667H13.3332C12.965 12.6667 12.6665 12.9652 12.6665 13.3334V18.6667C12.6665 19.0349 12.965 19.3334 13.3332 19.3334H15.9998C16.368 19.3334 16.6665 19.0349 16.6665 18.6667V13.3334C16.6665 12.9652 16.368 12.6667 15.9998 12.6667Z" fill="#0B113E"/>
<path opacity="0.3" d="M21.3333 8.66675H18.6667C18.2985 8.66675 18 8.96522 18 9.33341V18.6667C18 19.0349 18.2985 19.3334 18.6667 19.3334H21.3333C21.7015 19.3334 22 19.0349 22 18.6667V9.33341C22 8.96522 21.7015 8.66675 21.3333 8.66675Z" fill="#0B113E"/>
<path opacity="0.3" d="M10.6668 11.3333H8.00016C7.63197 11.3333 7.3335 11.6317 7.3335 11.9999V18.6666C7.3335 19.0348 7.63197 19.3333 8.00016 19.3333H10.6668C11.035 19.3333 11.3335 19.0348 11.3335 18.6666V11.9999C11.3335 11.6317 11.035 11.3333 10.6668 11.3333Z" fill="#0B113E"/>
<path opacity="0.3" d="M5.33333 14.6667H2.66667C2.29848 14.6667 2 14.9652 2 15.3334V18.6667C2 19.0349 2.29848 19.3334 2.66667 19.3334H5.33333C5.70152 19.3334 6 19.0349 6 18.6667V15.3334C6 14.9652 5.70152 14.6667 5.33333 14.6667Z" fill="#0B113E"/>
<path d="M22 18H2V20C2 20.5304 2.21071 21.0391 2.58579 21.4142C2.96086 21.7893 3.46957 22 4 22H20C20.5304 22 21.0391 21.7893 21.4142 21.4142C21.7893 21.0391 22 20.5304 22 20V18Z" fill="#0B113E"/>
<path opacity="0.3" d="M4 12.6666H2.66667C2.48986 12.6666 2.32029 12.5964 2.19526 12.4714C2.07024 12.3464 2 12.1768 2 12C2 11.8232 2.07024 11.6536 2.19526 11.5286C2.32029 11.4035 2.48986 11.3333 2.66667 11.3333H3.68L8 5.95997C8.0511 5.88309 8.11762 5.81766 8.19533 5.76783C8.27304 5.71799 8.36025 5.68484 8.45144 5.67048C8.54263 5.65611 8.63582 5.66084 8.72508 5.68436C8.81435 5.70789 8.89776 5.74969 8.97003 5.80714C9.0423 5.86458 9.10185 5.93641 9.1449 6.01807C9.18796 6.09972 9.21359 6.18944 9.22017 6.28152C9.22675 6.3736 9.21413 6.46604 9.18312 6.55299C9.1521 6.63994 9.10337 6.7195 9.04 6.78664L4.52 12.4133C4.45792 12.4919 4.37893 12.5554 4.28891 12.5993C4.19888 12.6432 4.10014 12.6662 4 12.6666Z" fill="#0B113E"/>
<path opacity="0.3" d="M15.5002 8.96C15.3498 8.95913 15.2042 8.90744 15.0869 8.81333C14.9495 8.70334 14.8612 8.54349 14.8412 8.36865C14.8212 8.1938 14.8712 8.01815 14.9802 7.88L19.4802 2.25333C19.5423 2.17476 19.6213 2.11119 19.7113 2.06733C19.8013 2.02348 19.9001 2.00046 20.0002 2H21.3335C21.5104 2 21.6799 2.07024 21.8049 2.19526C21.93 2.32029 22.0002 2.48986 22.0002 2.66667C22.0002 2.84348 21.93 3.01305 21.8049 3.13807C21.6799 3.2631 21.5104 3.33333 21.3335 3.33333H20.3202L16.0002 8.70667C15.9403 8.78266 15.8645 8.84469 15.7781 8.88843C15.6918 8.93218 15.5969 8.9566 15.5002 8.96Z" fill="#0B113E"/>
<path opacity="0.3" d="M10.7988 5.59823L9.99902 6.66504L13.1994 9.06449L13.9993 7.99768L10.7988 5.59823Z" fill="#0B113E"/>
<path d="M9.3335 7.33325C10.4381 7.33325 11.3335 6.43782 11.3335 5.33325C11.3335 4.22868 10.4381 3.33325 9.3335 3.33325C8.22893 3.33325 7.3335 4.22868 7.3335 5.33325C7.3335 6.43782 8.22893 7.33325 9.3335 7.33325Z" fill="#0B113E"/>
<path d="M14.6665 11.3267C15.7711 11.3267 16.6665 10.4312 16.6665 9.32666C16.6665 8.22209 15.7711 7.32666 14.6665 7.32666C13.5619 7.32666 12.6665 8.22209 12.6665 9.32666C12.6665 10.4312 13.5619 11.3267 14.6665 11.3267Z" fill="#0B113E"/>
</svg>
