<svg width="24" height="24" viewBox="0 0 24 24" fill="none" xmlns="http://www.w3.org/2000/svg">
<path d="M12 22C17.5228 22 22 17.5228 22 12C22 6.47715 17.5228 2 12 2C6.47715 2 2 6.47715 2 12C2 17.5228 6.47715 22 12 22Z" fill="#F0F0F0"/>
<path d="M4.06718 5.91187C3.28167 6.93386 2.68937 8.11179 2.34448 9.39144H7.54675L4.06718 5.91187Z" fill="#0052B4"/>
<path d="M21.6556 9.3914C21.3107 8.11179 20.7183 6.93386 19.9329 5.91187L16.4534 9.3914H21.6556Z" fill="#0052B4"/>
<path d="M2.34448 14.6086C2.6894 15.8883 3.28171 17.0662 4.06718 18.0881L7.54663 14.6086H2.34448Z" fill="#0052B4"/>
<path d="M18.0882 4.06722C17.0662 3.28171 15.8883 2.6894 14.6086 2.34448V7.54671L18.0882 4.06722Z" fill="#0052B4"/>
<path d="M5.91187 19.9328C6.93386 20.7183 8.11179 21.3106 9.3914 21.6556V16.4534L5.91187 19.9328Z" fill="#0052B4"/>
<path d="M9.39136 2.34448C8.11175 2.6894 6.93382 3.28171 5.91187 4.06718L9.39136 7.54667V2.34448Z" fill="#0052B4"/>
<path d="M14.6086 21.6556C15.8883 21.3106 17.0662 20.7183 18.0881 19.9329L14.6086 16.4534V21.6556Z" fill="#0052B4"/>
<path d="M16.4534 14.6086L19.9329 18.0882C20.7183 17.0662 21.3107 15.8883 21.6556 14.6086H16.4534Z" fill="#0052B4"/>
<path d="M21.9154 10.6957H13.3044H13.3044V2.08465C12.8774 2.02906 12.4421 2 12 2C11.5579 2 11.1226 2.02906 10.6957 2.08465V10.6956V10.6956H2.08465C2.02906 11.1226 2 11.5579 2 12C2 12.4421 2.02906 12.8774 2.08465 13.3043H10.6956H10.6956V21.9154C11.1226 21.9709 11.5579 22 12 22C12.4421 22 12.8774 21.971 13.3043 21.9154V13.3044V13.3044H21.9154C21.9709 12.8774 22 12.4421 22 12C22 11.5579 21.9709 11.1226 21.9154 10.6957V10.6957Z" fill="#D80027"/>
<path d="M14.6086 14.6087L19.071 19.071C19.2762 18.8659 19.472 18.6514 19.6588 18.429L15.8384 14.6086H14.6086V14.6087Z" fill="#D80027"/>
<path d="M9.39109 14.6086H9.39102L4.92871 19.0709C5.13387 19.2762 5.34836 19.472 5.5707 19.6588L9.39109 15.8383V14.6086Z" fill="#D80027"/>
<path d="M9.39122 9.39117V9.39109L4.92888 4.92871C4.72364 5.13387 4.52786 5.34836 4.34106 5.5707L8.16149 9.39113H9.39122V9.39117Z" fill="#D80027"/>
<path d="M14.6086 9.39126L19.071 4.92884C18.8659 4.7236 18.6514 4.52782 18.429 4.34106L14.6086 8.16149V9.39126Z" fill="#D80027"/>
</svg>
