<svg width="24" height="24" viewBox="0 0 24 24" fill="none" xmlns="http://www.w3.org/2000/svg">
<path opacity="0.3" d="M20 6H12L10.59 4.59C10.21 4.21 9.7 4 9.17 4H4C2.9 4 2.01 4.9 2.01 6L2 18C2 19.1 2.9 20 4 20H20C21.1 20 22 19.1 22 18V8C22 6.9 21.1 6 20 6Z" fill="#0B113E"/>
<path d="M13 12.9999V15.9999C13 16.5499 12.55 16.9999 12 16.9999C11.45 16.9999 11 16.5499 11 15.9999V12.9999H9.21003C8.76003 12.9999 8.54003 12.4599 8.86003 12.1499L11.66 9.3599C11.86 9.1599 12.17 9.1699 12.37 9.3599L15.16 12.1499C15.46 12.4599 15.24 12.9999 14.8 12.9999H13Z" fill="#0B113E"/>
</svg>
