<svg width="24" height="24" viewBox="0 0 24 24" fill="none" xmlns="http://www.w3.org/2000/svg">
<path opacity="0.3" d="M2 12C2 7.28595 2 4.92893 3.46447 3.46447C4.92893 2 7.28595 2 12 2C16.714 2 19.0711 2 20.5355 3.46447C22 4.92893 22 7.28595 22 12C22 16.714 22 19.0711 20.5355 20.5355C19.0711 22 16.714 22 12 22C7.28595 22 4.92893 22 3.46447 20.5355C2 19.0711 2 16.714 2 12Z" fill="#0B113E"/>
<path d="M10.0038 6.74997C10.4179 6.74646 10.7509 6.40784 10.7474 5.99364C10.7439 5.57944 10.4052 5.24652 9.99103 5.25003C9.14035 5.25724 8.41444 5.28357 7.81203 5.40157C7.18869 5.52367 6.64543 5.75316 6.1993 6.1993C5.75316 6.64543 5.52367 7.18869 5.40157 7.81203C5.28357 8.41444 5.25724 9.14035 5.25003 9.99103C5.24652 10.4052 5.57944 10.7439 5.99364 10.7474C6.40784 10.7509 6.74646 10.4179 6.74997 10.0038C6.75723 9.14788 6.7855 8.55011 6.8736 8.10037C6.95759 7.67158 7.08568 7.43423 7.25996 7.25996C7.43423 7.08568 7.67158 6.95759 8.10037 6.8736C8.55011 6.7855 9.14788 6.75723 10.0038 6.74997Z" fill="#0B113E"/>
<path d="M14.0063 5.25003C13.5921 5.24652 13.2535 5.57944 13.25 5.99364C13.2465 6.40784 13.5794 6.74646 13.9936 6.74997C14.8495 6.75723 15.4473 6.7855 15.897 6.8736C16.3258 6.95759 16.5631 7.08568 16.7374 7.25996C16.9117 7.43423 17.0398 7.67158 17.1238 8.10037C17.2119 8.55011 17.2401 9.14788 17.2474 10.0038C17.2509 10.4179 17.5895 10.7509 18.0037 10.7474C18.4179 10.7439 18.7508 10.4052 18.7473 9.99103C18.7401 9.14035 18.7138 8.41444 18.5958 7.81203C18.4737 7.18869 18.2442 6.64543 17.7981 6.1993C17.3519 5.75316 16.8087 5.52367 16.1853 5.40157C15.5829 5.28357 14.857 5.25724 14.0063 5.25003Z" fill="#0B113E"/>
<path d="M6.74997 13.9944C6.74646 13.5802 6.40784 13.2473 5.99364 13.2508C5.57944 13.2543 5.24652 13.5929 5.25003 14.0071C5.25724 14.8578 5.28357 15.5837 5.40157 16.1861C5.52367 16.8095 5.75316 17.3527 6.1993 17.7989C6.64543 18.245 7.18869 18.4745 7.81203 18.5966C8.41444 18.7146 9.14035 18.7409 9.99103 18.7481C10.4052 18.7516 10.7439 18.4187 10.7474 18.0045C10.7509 17.5903 10.4179 17.2517 10.0038 17.2482C9.14788 17.2409 8.55011 17.2126 8.10037 17.1246C7.67158 17.0406 7.43423 16.9125 7.25996 16.7382C7.08568 16.5639 6.95759 16.3266 6.8736 15.8978C6.7855 15.448 6.75723 14.8503 6.74997 13.9944Z" fill="#0B113E"/>
<path d="M18.7473 14.0071C18.7508 13.5929 18.4179 13.2543 18.0037 13.2508C17.5895 13.2473 17.2509 13.5802 17.2474 13.9944C17.2401 14.8503 17.2119 15.448 17.1238 15.8978C17.0398 16.3266 16.9117 16.5639 16.7374 16.7382C16.5631 16.9125 16.3258 17.0406 15.897 17.1246C15.4473 17.2126 14.8495 17.2409 13.9936 17.2482C13.5794 17.2517 13.2465 17.5903 13.25 18.0045C13.2535 18.4187 13.5921 18.7516 14.0063 18.7481C14.857 18.7409 15.5829 18.7146 16.1853 18.5966C16.8087 18.4745 17.3519 18.245 17.7981 17.7989C18.2442 17.3527 18.4737 16.8095 18.5958 16.1861C18.7138 15.5837 18.7401 14.8578 18.7473 14.0071Z" fill="#0B113E"/>
</svg>
