<svg width="24" height="24" viewBox="0 0 24 24" fill="none" xmlns="http://www.w3.org/2000/svg">
<path d="M12 2C10.0222 2 8.08879 2.58649 6.4443 3.6853C4.79981 4.78412 3.51809 6.3459 2.76121 8.17316C2.00433 10.0004 1.8063 12.0111 2.19215 13.9509C2.578 15.8907 3.53041 17.6725 4.92894 19.0711C6.32746 20.4696 8.10929 21.422 10.0491 21.8078C11.9889 22.1937 13.9996 21.9957 15.8268 21.2388C17.6541 20.4819 19.2159 19.2002 20.3147 17.5557C21.4135 15.9112 22 13.9778 22 12C21.9969 9.34877 20.9424 6.80701 19.0677 4.9323C17.193 3.0576 14.6512 2.00305 12 2ZM20.425 11.2308H16.5952C16.4231 7.72019 15.0712 5.2375 13.9625 3.76923C15.6839 4.18261 17.2328 5.12439 18.3919 6.46251C19.5511 7.80064 20.2623 9.46799 20.426 11.2308H20.425ZM8.9452 12.7692H15.0548C14.8327 16.7702 12.9173 19.2221 12 20.1731C11.0817 19.2211 9.16731 16.7692 8.9452 12.7692ZM8.9452 11.2308C9.16731 7.22981 11.0827 4.77788 12 3.82692C12.9183 4.78173 14.8327 7.23365 15.0548 11.2308H8.9452ZM10.0375 3.76923C8.92885 5.2375 7.57693 7.72019 7.40481 11.2308H3.57404C3.73769 9.46799 4.44895 7.80064 5.60808 6.46251C6.76721 5.12439 8.31609 4.18261 10.0375 3.76923ZM3.57404 12.7692H7.40481C7.57981 16.2798 8.92885 18.7625 10.0375 20.2308C8.31609 19.8174 6.76721 18.8756 5.60808 17.5375C4.44895 16.1994 3.73769 14.532 3.57404 12.7692ZM13.9587 20.2308C15.0673 18.7625 16.4163 16.2798 16.5913 12.7692H20.4221C20.2587 14.5315 19.548 16.1985 18.3896 17.5365C17.2312 18.8746 15.6832 19.8167 13.9625 20.2308H13.9587Z" fill="#0B113E"/>
</svg>
