<svg width="24" height="24" viewBox="0 0 24 24" fill="none" xmlns="http://www.w3.org/2000/svg">
<path d="M22 18.1041V19.2C22 19.4273 21.8741 19.635 21.6748 19.7367C18.3719 21.4211 15.0398 21.4211 11.7369 19.7367C11.3499 19.5393 10.9634 19.3676 10.5772 19.2216L10.5242 18.5207C10.2095 16.1132 9.24586 14.3112 7.6314 13.1584C6.04772 12.0276 4.2452 11.5409 2.24778 11.7018L2 11.728V4.79999C2 4.57271 2.12588 4.36495 2.32518 4.26333C4.36707 3.22198 6.42015 2.8244 8.47058 3.07063V3.90002C8.47819 6.08269 8.90453 7.71344 9.78426 8.7852C10.3183 9.43585 10.9302 9.85811 12.0282 10.4342C12.1015 10.4726 12.1768 10.5118 12.2773 10.5639C12.4023 10.6286 12.4707 10.664 12.5276 10.6935C12.7308 10.799 12.8815 10.8785 13.03 10.959C13.4094 11.165 13.7281 11.3543 14.0304 11.5579C14.3099 11.7462 14.5701 11.9437 14.8173 12.1576C15.304 12.5787 15.6221 13.0561 15.8961 13.7077C15.9899 13.9309 16.0227 14.0199 16.2142 14.5571C16.6759 15.8521 17.0377 16.4658 17.8781 17.0073C19.102 17.796 20.2616 18.1685 21.3544 18.1041L22 18.1041ZM22 16.9049L21.3001 16.9053C20.4735 16.9579 19.543 16.6607 18.5064 15.9928C17.9482 15.6331 17.6989 15.2103 17.3198 14.147C17.119 13.5839 17.0836 13.4877 16.9773 13.2347C16.6366 12.4243 16.2176 11.7956 15.5783 11.2425C15.294 10.9965 14.9962 10.7705 14.6787 10.5566C14.342 10.3298 13.9925 10.1221 13.5825 9.8996C13.4266 9.81499 13.2702 9.73249 13.0612 9.62398C13.0037 9.59415 12.9344 9.55829 12.81 9.49392C12.7112 9.4427 12.6375 9.40436 12.5663 9.36701C11.598 8.85899 11.0934 8.5108 10.6863 8.01485C10.0118 7.19302 9.65379 5.82375 9.64707 3.89785V3.28262C10.5204 3.49258 11.3928 3.81948 12.2631 4.26333C15.2347 5.77887 18.1771 5.77887 21.1487 4.26333C21.5398 4.06388 22 4.35397 22 4.79999L22 16.9049ZM18.1765 10.2C18.6638 10.2 19.0588 9.79706 19.0588 9.29999C19.0588 8.80293 18.6638 8.39999 18.1765 8.39999C17.6891 8.39999 17.2941 8.80293 17.2941 9.29999C17.2941 9.79706 17.6891 10.2 18.1765 10.2ZM9.36995 18.8488C7.19739 18.3285 5.03224 18.6244 2.85128 19.7367C2.4602 19.9361 2 19.6461 2 19.2V12.9343L2.35465 12.8968C4.06851 12.759 5.59932 13.1724 6.95679 14.1416C8.28003 15.0864 9.0804 16.5791 9.35596 18.663L9.36995 18.8488Z" fill="#5C607E"/>
<path d="M22 18.1041V19.2C22 19.4273 21.8741 19.635 21.6748 19.7367C18.3719 21.4211 15.0398 21.4211 11.7369 19.7367C11.3499 19.5393 10.9634 19.3676 10.5772 19.2216L10.5242 18.5207C10.2095 16.1132 9.24586 14.3112 7.6314 13.1584C6.04772 12.0276 4.2452 11.5409 2.24778 11.7018L2 11.728V4.79999C2 4.57271 2.12588 4.36495 2.32518 4.26333C4.36707 3.22198 6.42015 2.8244 8.47058 3.07063V3.90002C8.47819 6.08269 8.90453 7.71344 9.78426 8.7852C10.3183 9.43585 10.9302 9.85811 12.0282 10.4342C12.1015 10.4726 12.1768 10.5118 12.2773 10.5639C12.4023 10.6286 12.4707 10.664 12.5276 10.6935C12.7308 10.799 12.8815 10.8785 13.03 10.959C13.4094 11.165 13.7281 11.3543 14.0304 11.5579C14.3099 11.7462 14.5701 11.9437 14.8173 12.1576C15.304 12.5787 15.6221 13.0561 15.8961 13.7077C15.9899 13.9309 16.0227 14.0199 16.2142 14.5571C16.6759 15.8521 17.0377 16.4658 17.8781 17.0073C19.102 17.796 20.2616 18.1685 21.3544 18.1041L22 18.1041Z" fill="#0B113E"/>
</svg>
