<svg width="20" height="20" viewBox="0 0 20 20" fill="none" xmlns="http://www.w3.org/2000/svg">
<g clip-path="url(#clip0_248_8065)">
<path fill-rule="evenodd" clip-rule="evenodd" d="M10.0001 15.0001C9.30978 15.0001 8.75009 15.5595 8.75009 16.2498V18.7497C8.75009 19.4403 9.30978 20 10.0001 20C10.6904 20 11.2501 19.4403 11.2501 18.7497V16.2498C11.2501 15.5595 10.6904 15.0001 10.0001 15.0001ZM18.2029 13.2923L16.0376 12.0423C15.4398 11.6973 14.6754 11.902 14.3301 12.5001C13.9851 13.0976 14.1898 13.8623 14.7876 14.2073L16.9526 15.4573C17.5507 15.8026 18.3151 15.5976 18.6604 15.0001C19.0054 14.402 18.8007 13.6376 18.2029 13.2923ZM7.50009 14.3298C6.90228 13.9848 6.13791 14.1895 5.79259 14.7876L4.54259 16.9526C4.19759 17.5504 4.40228 18.3147 5.00009 18.66C5.59791 19.0054 6.36228 18.8004 6.70759 18.2026L7.95759 16.0376C8.30259 15.4395 8.09791 14.6754 7.50009 14.3298ZM14.2076 14.7876C13.8626 14.1895 13.0979 13.9848 12.5001 14.3298C11.9023 14.6751 11.6976 15.4395 12.0426 16.0376L13.2923 18.2026C13.6376 18.8004 14.4023 19.005 15.0001 18.66C15.5979 18.3151 15.8026 17.5504 15.4576 16.9526L14.2076 14.7876Z" fill="#F7E3BB"/>
<path fill-rule="evenodd" clip-rule="evenodd" d="M3.75 11.25C4.44031 11.25 5 10.6904 5 9.99974C5 9.30943 4.44031 8.74976 3.75 8.74976H1.25C0.559687 8.74976 0 9.30943 0 9.99974C0 10.6904 0.559687 11.25 1.25 11.25H3.75ZM5.67 12.5C5.325 11.9019 4.56031 11.6972 3.9625 12.0422L1.79719 13.2922C1.19938 13.6372 0.994688 14.4019 1.33969 15C1.68469 15.5975 2.44938 15.8025 3.04719 15.4572L5.2125 14.2072C5.81031 13.8622 6.015 13.0975 5.67 12.5Z" fill="#E9B84F"/>
<path fill-rule="evenodd" clip-rule="evenodd" d="M5.21228 5.79237L3.04697 4.54239C2.44916 4.1974 1.68478 4.40208 1.33947 5.0002C0.994469 5.59769 1.19916 6.36205 1.79697 6.70736L3.96228 7.95734C4.56009 8.30265 5.32447 8.09765 5.66978 7.49985C6.01509 6.90204 5.81009 6.13768 5.21228 5.79237ZM7.95728 3.9624L6.70728 1.79744C6.36197 1.19963 5.59759 0.994637 4.99978 1.33963C4.40197 1.68463 4.19728 2.44961 4.54228 3.04742L5.79228 5.21238C6.13728 5.81019 6.90197 6.01487 7.49978 5.66988C8.09759 5.32488 8.30228 4.56021 7.95728 3.9624Z" fill="#EDC36C"/>
<path fill-rule="evenodd" clip-rule="evenodd" d="M10 0C9.30969 0 8.75 0.559679 8.75 1.25029V3.75025C8.75 4.44024 9.30969 5.00023 10 5.00023C10.6903 5.00023 11.25 4.44024 11.25 3.75025V1.25029C11.25 0.559679 10.6903 0 10 0ZM15 1.33967C14.4022 0.994672 13.6378 1.19967 13.2922 1.79747L12.0425 3.96244C11.6975 4.56024 11.9022 5.32492 12.5 5.66991C13.0978 6.01491 13.8622 5.81022 14.2075 5.21242L15.4575 3.04745C15.8025 2.44965 15.5978 1.68497 15 1.33967Z" fill="#EDC36C"/>
<path fill-rule="evenodd" clip-rule="evenodd" d="M18.7502 8.74977H16.2502C15.5599 8.74977 15.0002 9.30945 15.0002 9.99975C15.0002 10.6904 15.5599 11.25 16.2502 11.25H18.7502C19.4405 11.25 20.0002 10.6904 20.0002 9.99975C20.0002 9.30945 19.4405 8.74977 18.7502 8.74977ZM16.0377 7.95728L18.203 6.7073C18.8008 6.36231 19.0055 5.59763 18.6605 5.00014C18.3155 4.40203 17.5508 4.19734 16.9527 4.54234L14.7877 5.79232C14.1899 6.13731 13.9852 6.90199 14.3302 7.49979C14.6752 8.09759 15.4399 8.30259 16.0377 7.95728Z" fill="#EDC36C"/>
</g>
<defs>
<clipPath id="clip0_248_8065">
<rect width="20" height="20" fill="white"/>
</clipPath>
</defs>
</svg>
