<svg width="24" height="24" viewBox="0 0 24 24" fill="none" xmlns="http://www.w3.org/2000/svg">
<path opacity="0.4" d="M15 7.2V16.79C15 20 13 22 9.8 22H7.21C4.01 22 2.01 20 2.01 16.8V7.2C2 4 4 2 7.2 2H9.8C13 2 15 4 15 7.2Z" fill="#EF4444"/>
<path d="M18.4305 8.12002L21.7805 11.47C22.0705 11.76 22.0705 12.24 21.7805 12.53L18.4305 15.88C18.1405 16.17 17.6605 16.17 17.3705 15.88C17.0805 15.59 17.0805 15.11 17.3705 14.82L19.4405 12.75H8.7505C8.3405 12.75 8.0005 12.41 8.0005 12C8.0005 11.59 8.3405 11.25 8.7505 11.25H19.4405L17.3705 9.18002C17.2205 9.03002 17.1505 8.84002 17.1505 8.65002C17.1505 8.46002 17.2205 8.26002 17.3705 8.12002C17.6605 7.82002 18.1305 7.82002 18.4305 8.12002Z" fill="#EF4444"/>
</svg>
