<svg width="24" height="24" viewBox="0 0 24 24" fill="none" xmlns="http://www.w3.org/2000/svg">
<g clip-path="url(#clip0_1104_18268)">
<path opacity="0.3" d="M12.6298 9.69362C11.4448 9.86111 10.4099 10.9736 10.3999 10.9836C10.385 10.999 10.3682 11.0125 10.3499 11.0236C8.73989 12.0686 7.83241 11.2736 7.79491 11.2261C6.76493 10.2986 7.70991 8.74363 7.74991 8.67864C8.17181 7.9774 8.68271 7.33373 9.26988 6.76367H4.89746L3 13.0236C3.02038 13.0349 3.03892 13.0492 3.055 13.0661C5.99994 16.396 9.90987 19.3509 11.4523 20.4659C11.6129 20.5846 11.8125 20.6379 12.0108 20.615C12.2092 20.5922 12.3914 20.4948 12.5207 20.3426C12.6499 20.1905 12.7166 19.9949 12.7072 19.7955C12.6977 19.5961 12.6129 19.4077 12.4698 19.2684L10.3474 17.146C10.3008 17.0991 10.2747 17.0358 10.2747 16.9697C10.2747 16.9037 10.3008 16.8403 10.3474 16.7935C10.3706 16.7701 10.3983 16.7515 10.4287 16.7388C10.4592 16.7261 10.4919 16.7195 10.5249 16.7195C10.5579 16.7195 10.5905 16.7261 10.621 16.7388C10.6515 16.7515 10.6791 16.7701 10.7024 16.7935L11.8323 17.9235L12.8323 18.9234L13.3323 19.4359C13.5117 19.6106 13.7523 19.7081 14.0027 19.7075C14.2531 19.7069 14.4932 19.6082 14.6718 19.4327C14.8503 19.2571 14.9529 19.0186 14.9577 18.7683C14.9624 18.5179 14.869 18.2757 14.6973 18.0935L12.7498 16.061L12.3798 15.6785C12.3564 15.6553 12.3378 15.6276 12.3251 15.5972C12.3124 15.5667 12.3059 15.534 12.3059 15.501C12.3059 15.468 12.3124 15.4353 12.3251 15.4049C12.3378 15.3744 12.3564 15.3468 12.3798 15.3235C12.4031 15.3001 12.4307 15.2815 12.4612 15.2688C12.4916 15.2561 12.5243 15.2496 12.5573 15.2496C12.5903 15.2496 12.623 15.2561 12.6535 15.2688C12.6839 15.2815 12.7116 15.3001 12.7348 15.3235L15.5773 18.2735C15.7149 18.4097 15.8891 18.503 16.0788 18.5421C16.2685 18.5812 16.4654 18.5644 16.6457 18.4937C16.826 18.423 16.9819 18.3015 17.0944 18.1439C17.207 17.9863 17.2714 17.7994 17.2797 17.606C17.2839 17.4697 17.2593 17.334 17.2076 17.2078C17.1559 17.0816 17.0783 16.9677 16.9797 16.8735L15.2748 15.2235L14.0873 14.071C14.0609 14.049 14.0393 14.0217 14.0239 13.9909C14.0085 13.9601 13.9996 13.9265 13.9978 13.8921C13.996 13.8577 14.0013 13.8233 14.0134 13.7911C14.0255 13.7589 14.0442 13.7295 14.0682 13.7048C14.0922 13.6801 14.121 13.6607 14.1529 13.6477C14.1848 13.6346 14.219 13.6283 14.2534 13.6292C14.2878 13.63 14.3217 13.6379 14.3529 13.6524C14.3841 13.6669 14.412 13.6877 14.4348 13.7135L17.8097 16.981C17.8982 17.0719 18.0042 17.1439 18.1213 17.1928C18.2384 17.2416 18.3642 17.2663 18.4911 17.2652C18.618 17.2642 18.7433 17.2374 18.8596 17.1866C18.9759 17.1358 19.0806 17.062 19.1676 16.9696C19.2546 16.8772 19.322 16.7682 19.3657 16.6491C19.4094 16.53 19.4285 16.4032 19.4219 16.2765C19.4154 16.1498 19.3832 16.0257 19.3274 15.9118C19.2716 15.7979 19.1933 15.6964 19.0972 15.6135L12.6298 9.69362Z" fill="#0B113E"/>
<path d="M4.13492 5.29991C2.83709 4.71643 1.42193 4.44093 0 4.49493V14.2997H1.52747C1.69049 14.3001 1.8492 14.2474 1.97957 14.1495C2.10993 14.0516 2.20485 13.9139 2.24996 13.7573L4.54491 6.1999C4.59737 6.02568 4.5847 5.83833 4.50928 5.67275C4.43385 5.50718 4.3008 5.37467 4.13492 5.29991Z" fill="#0B113E"/>
<path opacity="0.3" d="M13.4407 5.78414C12.9016 5.56222 12.2992 5.54885 11.7507 5.74664C10.7933 6.09664 9.39579 6.93662 8.16832 8.94158C8.16832 8.95658 7.40083 10.1916 8.12332 10.8565C8.14832 10.879 8.7933 11.419 10.0433 10.6216C10.2233 10.4341 11.3508 9.30408 12.6832 9.18158C12.7177 9.17869 12.7523 9.18298 12.785 9.19416C12.8177 9.20535 12.8478 9.2232 12.8732 9.24658L19.4256 15.2465C19.4556 15.274 19.4831 15.304 19.5106 15.334C20.2606 15.219 20.7606 14.534 20.9056 14.284L18.5306 7.81161L13.4407 5.78414Z" fill="#0B113E"/>
<path d="M23.5003 5.68579C22.0744 5.67632 20.6601 5.94288 19.3354 6.47078C19.1573 6.54712 19.0156 6.68946 18.9401 6.86796C18.8646 7.04646 18.8611 7.24726 18.9304 7.42826L21.7129 15.0006C21.7672 15.1467 21.8647 15.2728 21.9924 15.3621C22.1201 15.4514 22.272 15.4997 22.4279 15.5006H24.0003V5.69829C23.8753 5.69079 23.7028 5.68579 23.5003 5.68579Z" fill="#0B113E"/>
</g>
<defs>
<clipPath id="clip0_1104_18268">
<rect width="24" height="24" fill="white"/>
</clipPath>
</defs>
</svg>
