<svg width="24" height="24" viewBox="0 0 24 24" fill="none" xmlns="http://www.w3.org/2000/svg">
<path opacity="0.3" d="M9.2829 7.15165L9.85077 8.16922C10.3633 9.08751 10.1575 10.2922 9.35036 11.0993C9.35036 11.0993 8.37139 12.0785 10.1464 13.8536C11.9209 15.6281 12.9007 14.6497 12.9007 14.6497C13.7079 13.8425 14.9125 13.6368 15.8308 14.1492L16.8483 14.7171C18.235 15.491 18.3987 17.4356 17.1799 18.6545C16.4476 19.3868 15.5503 19.9567 14.5585 19.9943C12.8889 20.0576 10.0535 19.6351 7.20924 16.7908C4.36499 13.9465 3.94244 11.1111 4.00573 9.44146C4.04333 8.44966 4.6132 7.55246 5.34558 6.82008C6.56442 5.60124 8.50902 5.76501 9.2829 7.15165Z" fill="#0B113E"/>
<path d="M12.009 3.59669C12.0717 3.20932 12.438 2.94654 12.8255 3.00925C12.8495 3.01384 12.9267 3.02826 12.9671 3.03726C13.048 3.05527 13.1608 3.08298 13.3014 3.12394C13.5827 3.20583 13.9756 3.34075 14.4471 3.55687C15.3913 3.9896 16.6477 4.74656 17.9515 6.04997C19.2553 7.35338 20.0124 8.60943 20.4452 9.55329C20.6615 10.0247 20.7964 10.4175 20.8783 10.6987C20.9192 10.8393 20.947 10.952 20.965 11.0329C20.974 11.0733 20.9807 11.1058 20.9852 11.1297L20.9907 11.1593C21.0533 11.5466 20.7929 11.928 20.4054 11.9908C20.0191 12.0533 19.6551 11.7917 19.5908 11.4062C19.5888 11.3958 19.5833 11.3681 19.5776 11.3418C19.5658 11.2893 19.5456 11.2061 19.5136 11.0961C19.4494 10.876 19.3381 10.5488 19.1531 10.1455C18.7837 9.33996 18.1194 8.22756 16.9463 7.05482C15.7733 5.88209 14.6605 5.21799 13.8547 4.84867C13.4513 4.66378 13.1241 4.55243 12.9039 4.48831C12.7938 4.45626 12.6555 4.42452 12.603 4.41284C12.2173 4.34857 11.9464 3.98296 12.009 3.59669Z" fill="#0B113E"/>
<path fill-rule="evenodd" clip-rule="evenodd" d="M12.0303 6.56851C12.1492 6.15241 12.5829 5.91147 12.999 6.03035L12.7838 6.78377C12.999 6.03035 12.999 6.03035 12.999 6.03035L13.0006 6.03079L13.0021 6.03126L13.0056 6.03226L13.0137 6.03468L13.0344 6.04113C13.0501 6.04617 13.0698 6.05273 13.0932 6.06105C13.1402 6.07771 13.2022 6.10138 13.2783 6.13398C13.4305 6.19921 13.6384 6.29994 13.8939 6.45112C14.4052 6.75377 15.1033 7.25648 15.9234 8.07658C16.7436 8.8967 17.2462 9.59477 17.5488 10.1061C17.7 10.3616 17.8007 10.5696 17.866 10.7218C17.8986 10.7978 17.9223 10.8599 17.9389 10.9068C17.9473 10.9302 17.9538 10.9499 17.9589 10.9657L17.9653 10.9863L17.9677 10.9944L17.9687 10.9979L17.9691 10.9995C17.9691 10.9995 17.9697 11.001 17.2162 11.2163L17.9697 11.001C18.0885 11.4171 17.8475 11.8508 17.4315 11.9697C17.0189 12.0875 16.589 11.8517 16.4659 11.4421L16.462 11.4308C16.4565 11.4151 16.445 11.3842 16.4256 11.3391C16.387 11.2489 16.3169 11.1013 16.2003 10.9043C15.9673 10.5107 15.5466 9.91599 14.8153 9.1847C14.0841 8.45343 13.4893 8.03272 13.0958 7.79977C12.8987 7.68316 12.7512 7.61304 12.6609 7.57439C12.6158 7.55505 12.5849 7.54351 12.5692 7.53795L12.5579 7.5341C12.1484 7.41095 11.9125 6.98107 12.0303 6.56851Z" fill="#0B113E"/>
</svg>
