<svg width="24" height="24" viewBox="0 0 24 24" fill="none" xmlns="http://www.w3.org/2000/svg">
<path opacity="0.3" d="M10.0376 5.31617L10.6866 6.4791C11.2723 7.52858 11.0372 8.90532 10.1147 9.8278C10.1147 9.8278 8.99588 10.9468 11.0245 12.9755C13.0525 15.0035 14.1722 13.8853 14.1722 13.8853C15.0947 12.9628 16.4714 12.7277 17.5209 13.3134L18.6838 13.9624C20.2686 14.8468 20.4557 17.0692 19.0628 18.4622C18.2258 19.2992 17.2004 19.9505 16.0669 19.9934C14.1588 20.0658 10.9183 19.5829 7.6677 16.3323C4.41713 13.0817 3.93421 9.84122 4.00655 7.93309C4.04952 6.7996 4.7008 5.77423 5.53781 4.93723C6.93076 3.54428 9.15317 3.73144 10.0376 5.31617Z" fill="#0B113E"/>
<path d="M13.2595 1.87983C13.3257 1.47094 13.7122 1.19357 14.1211 1.25976C14.1464 1.26461 14.2279 1.27983 14.2705 1.28933C14.3559 1.30834 14.4749 1.33759 14.6233 1.38082C14.9201 1.46726 15.3347 1.60967 15.8323 1.8378C16.8286 2.29456 18.1544 3.09356 19.5302 4.46936C20.906 5.84516 21.705 7.17097 22.1617 8.16725C22.3899 8.66487 22.5323 9.07947 22.6187 9.37625C22.6619 9.52466 22.6912 9.64369 22.7102 9.72901C22.7197 9.77168 22.7267 9.80594 22.7315 9.83125L22.7373 9.86245C22.8034 10.2713 22.5286 10.6739 22.1197 10.7401C21.712 10.8061 21.3279 10.53 21.2601 10.1231C21.258 10.1121 21.2522 10.0828 21.2461 10.0551C21.2337 9.9997 21.2124 9.91188 21.1786 9.79572C21.1109 9.56339 20.9934 9.21806 20.7982 8.79238C20.4084 7.94207 19.7074 6.76789 18.4695 5.53002C17.2317 4.29216 16.0575 3.59117 15.2072 3.20134C14.7815 3.00618 14.4362 2.88865 14.2038 2.82097C14.0877 2.78714 13.9417 2.75363 13.8863 2.7413C13.4793 2.67347 13.1935 2.28755 13.2595 1.87983Z" fill="#0B113E"/>
<path fill-rule="evenodd" clip-rule="evenodd" d="M13.4856 5.32931C13.5994 4.93103 14.0145 4.70041 14.4128 4.8142L14.2068 5.53535C14.4128 4.8142 14.4128 4.8142 14.4128 4.8142L14.4143 4.81462L14.4158 4.81507L14.4191 4.81603L14.4269 4.81835L14.4467 4.82452C14.4617 4.82934 14.4806 4.83562 14.503 4.84359C14.5479 4.85953 14.6073 4.88219 14.6801 4.91339C14.8258 4.97583 15.0248 5.07224 15.2694 5.21695C15.7588 5.50663 16.427 5.98781 17.212 6.77278C17.997 7.55777 18.4781 8.22594 18.7678 8.71541C18.9125 8.95992 19.0089 9.15898 19.0714 9.30467C19.1026 9.37747 19.1253 9.43684 19.1412 9.48175C19.1492 9.5042 19.1554 9.52302 19.1603 9.5381L19.1664 9.5579L19.1687 9.56564L19.1697 9.56897L19.1701 9.57052C19.1701 9.57052 19.1706 9.57195 18.4494 9.77799L19.1706 9.57196C19.2844 9.97023 19.0537 10.3853 18.6555 10.4991C18.2606 10.6119 17.8491 10.3862 17.7312 9.99414L17.7275 9.98336C17.7222 9.96833 17.7112 9.93876 17.6927 9.89556C17.6557 9.80922 17.5886 9.66798 17.477 9.47939C17.254 9.10265 16.8513 8.5334 16.1513 7.83344C15.4514 7.13349 14.8821 6.7308 14.5054 6.50783C14.3168 6.39621 14.1756 6.3291 14.0892 6.2921C14.046 6.27359 14.0164 6.26255 14.0014 6.25722L13.9906 6.25354C13.5986 6.13566 13.3728 5.7242 13.4856 5.32931Z" fill="#0B113E"/>
</svg>
