<svg width="24" height="24" viewBox="0 0 24 24" fill="none" xmlns="http://www.w3.org/2000/svg">
<mask id="mask0_1157_17113" style="mask-type:luminance" maskUnits="userSpaceOnUse" x="2" y="2" width="20" height="20">
<path d="M22 2H2V22H22V2Z" fill="white"/>
</mask>
<g mask="url(#mask0_1157_17113)">
<path d="M9.65641 17.8177L11.217 17.8397L11.2197 16.4454H12.783V19.2193H8.1037V13.6763L15.8937 13.6787V22.0007H4.98242V10.9121H19.015V21.9909L17.4596 21.9958V12.2918H6.54042L6.54571 20.6063H14.3383V15.0657L9.65905 15.0633L9.65641 17.8177Z" fill="white"/>
<path d="M12.0043 3.94961L4.19312 10.8919C3.46305 10.9163 2.74357 10.9139 2.00293 10.8919L11.991 2L22.0003 10.8968L19.8286 10.9139L12.0043 3.94961Z" fill="white"/>
<path d="M15.8689 9.51505H8.11328L11.9964 6.05859L15.8689 9.51505ZM13.9723 8.813L12.0017 7.02728L10.0151 8.82034L13.9723 8.813Z" fill="white"/>
</g>
</svg>
