<svg width="24" height="24" viewBox="0 0 24 24" fill="none" xmlns="http://www.w3.org/2000/svg">
<path d="M6.47258 7.54023C6.4217 7.52295 6.37098 7.52295 6.32027 7.52295C6.08339 7.52295 5.88054 7.67913 5.81281 7.92187C5.77895 8.0606 5.79597 8.1995 5.86353 8.32079C5.93125 8.44224 6.04969 8.52897 6.18498 8.58098C6.47258 8.66771 6.76 8.49425 6.84458 8.21678C6.87844 8.07805 6.86159 7.93932 6.79387 7.81786C6.7263 7.67913 6.60786 7.5924 6.47258 7.54023Z" fill="#0B113E"/>
<path d="M9.33081 10.0728C9.8044 10.0728 10.2611 9.9513 10.6672 9.70839C10.8363 9.60438 11.0393 9.65639 11.1408 9.82984C11.2422 10.0033 11.1915 10.2115 11.0223 10.3155C10.5149 10.6279 9.92284 10.7839 9.33081 10.7839C9.22938 10.7839 9.12779 10.7839 9.02637 10.7666" fill="#0B113E"/>
<path d="M7.72428 9.51711C8.16417 9.86403 8.70533 10.0548 9.26366 10.0722C9.65268 8.33763 8.62075 6.56832 6.91238 6.08267C6.74323 6.03066 6.57408 6.01322 6.42177 5.97849L6.98011 6.2214C6.87852 6.42958 6.81096 6.65505 6.76008 6.89796C7.04767 7.00196 7.28455 7.1927 7.43669 7.47033C7.58899 7.76525 7.6397 8.09472 7.55513 8.40691C7.40299 8.96201 6.91238 9.30892 6.37106 9.30892C6.26963 9.30892 6.1512 9.29165 6.03276 9.25692C5.71146 9.17019 5.45774 8.96201 5.28858 8.66709C5.13628 8.37235 5.08557 8.04271 5.17014 7.73052C5.28858 7.27943 5.64374 6.96724 6.04977 6.86323C6.10048 6.55104 6.18506 6.25613 6.32035 5.96121C5.64374 5.89176 4.98398 6.03066 4.3751 6.37758C3.59706 6.8285 3.03873 7.53962 2.785 8.42435C2.39598 9.76002 2.81886 11.1477 3.83378 11.9803C3.88449 12.0323 3.9015 12.1017 3.88449 12.1537L3.20788 14.8076C3.20788 14.8596 3.20788 14.8943 3.22489 14.929L3.61391 15.8311C3.64777 15.9178 3.61391 16.0045 3.54618 16.0565L2.90344 16.4902C2.83588 16.5422 2.80201 16.6289 2.83588 16.7156L3.15717 17.4095C3.19103 17.4962 3.17418 17.5829 3.0896 17.6349L2.46371 18.0513C2.39598 18.1033 2.36212 18.19 2.39598 18.2768L2.71744 18.9706C2.7513 19.0573 2.71744 19.1613 2.64971 19.1961L2.09154 19.5082C2.00696 19.5604 1.9731 19.6644 2.02381 19.7512L2.64971 20.9134C2.66672 20.9481 2.71744 20.9826 2.7513 21.0001H2.80201C2.83588 21.0001 2.86957 21.0001 2.88659 20.9826L4.18909 20.2021C4.22279 20.1848 4.25666 20.1501 4.27367 20.0981L6.28648 13.0036C6.3035 12.9343 6.35421 12.8823 6.42177 12.8823C7.50441 12.7261 8.50248 11.8935 8.99292 10.7833C8.36702 10.7313 7.75814 10.4884 7.25069 10.0895C7.09838 9.96803 7.06468 9.74257 7.18296 9.58656C7.35211 9.43038 7.57214 9.39565 7.72428 9.51711Z" fill="#0B113E"/>
<path d="M6.30371 5.94277C6.84487 4.79784 8.01208 4 9.33144 4C10.8877 4 12.2577 5.12748 12.596 6.65388C12.6299 6.84462 12.5115 7.03552 12.3255 7.07025C12.1395 7.1048 11.9533 6.98352 11.9026 6.79261C11.632 5.5784 10.5494 4.69383 9.31459 4.69383C8.28266 4.69383 7.36934 5.30094 6.92944 6.20296" fill="#0B113E"/>
<path opacity="0.3" d="M22.897 13.2649L16.9598 7.24607C16.8243 7.10716 16.4523 6.79497 16.0124 6.77769L12.1726 6.41333C12.1558 6.41333 12.1558 6.41333 12.1389 6.41333H12.0544C11.6483 6.41333 11.31 6.56951 11.0056 6.8817C10.6841 7.21134 10.5488 7.55826 10.5488 8.04391V8.07863L10.8871 11.9814C10.8871 12.4324 11.2086 12.7967 11.3439 12.9355L17.2811 18.9545C17.3488 19.0238 17.4334 19.0585 17.5348 19.0585C17.6364 19.0585 17.721 19.0238 17.7885 18.9545L22.9138 13.768C23.0322 13.6293 23.0322 13.4038 22.897 13.2649ZM14.8961 12.8487C14.8115 12.8487 14.7099 12.814 14.6423 12.7446C14.5071 12.6058 14.5071 12.3804 14.6423 12.2416L16.3339 10.5243C16.4692 10.3856 16.689 10.3856 16.8243 10.5243C16.9598 10.6631 16.9598 10.8887 16.8243 11.0274L15.1328 12.7446C15.0652 12.814 14.9807 12.8487 14.8961 12.8487ZM18.8034 13.0222L17.1119 14.7393C17.0443 14.8088 16.9598 14.8435 16.8582 14.8435C16.7568 14.8435 16.6722 14.8088 16.6044 14.7393C16.4692 14.6006 16.4692 14.3751 16.6044 14.2364L18.296 12.5191C18.4313 12.3804 18.6513 12.3804 18.7866 12.5191C18.9387 12.6578 18.9387 12.8835 18.8034 13.0222Z" fill="#0B113E"/>
</svg>
