<svg width="24" height="24" viewBox="0 0 24 24" fill="none" xmlns="http://www.w3.org/2000/svg">
<path d="M17.54 0.910156C18.5599 0.910185 19.3894 1.73996 19.3896 2.75977V21.2402C19.3896 22.2602 18.56 23.0898 17.54 23.0898H6.45996C5.44 23.0898 4.61039 22.2602 4.61035 21.2402V2.77051C4.61035 1.75052 5.43997 0.919935 6.45996 0.919922H17.54V0.910156ZM10.6201 20.3105C10.3701 20.3105 10.1602 20.5205 10.1602 20.7705C10.1602 21.0205 10.3701 21.2305 10.6201 21.2305H13.3896C13.6396 21.2305 13.8496 21.0205 13.8496 20.7705C13.8496 20.5205 13.6396 20.3105 13.3896 20.3105H10.6201ZM6.4502 1.83984C5.94022 1.83984 5.53032 2.2498 5.53027 2.75977V18.46H18.46V2.75977C18.4599 2.24982 18.05 1.83987 17.54 1.83984H6.4502Z" fill="#0B113E"/>
<path opacity="0.3" d="M6.45978 1.83984H17.5398C18.0498 1.83984 18.4598 2.24984 18.4598 2.75984V18.4598H5.52979V2.75984C5.52979 2.24984 5.93978 1.83984 6.44978 1.83984H6.45978Z" fill="#0B113E"/>
</svg>
