<svg width="24" height="24" viewBox="0 0 24 24" fill="none" xmlns="http://www.w3.org/2000/svg">
<path d="M17.6288 8.23668C17.591 8.32804 17.5269 8.40614 17.4447 8.46109C17.3625 8.51605 17.2659 8.54539 17.167 8.54541H7.16737C7.06842 8.54549 6.97168 8.51621 6.88939 8.46128C6.80709 8.40634 6.74295 8.32823 6.70507 8.23682C6.6672 8.14542 6.6573 8.04483 6.67662 7.9478C6.69595 7.85076 6.74363 7.76164 6.81363 7.69172L11.8134 2.69204C11.8599 2.64556 11.915 2.60868 11.9757 2.58352C12.0364 2.55836 12.1015 2.54541 12.1672 2.54541C12.2329 2.54541 12.2979 2.55836 12.3586 2.58352C12.4193 2.60868 12.4745 2.64556 12.5209 2.69204L17.5207 7.69172C17.5906 7.76168 17.6382 7.85079 17.6574 7.9478C17.6767 8.0448 17.6667 8.14533 17.6288 8.23668Z" fill="#0B113E"/>
<path d="M17.5204 16.3996L12.5207 21.3993C12.4743 21.4458 12.4191 21.4826 12.3584 21.5078C12.2978 21.5329 12.2327 21.5459 12.167 21.5459C12.1013 21.5459 12.0362 21.5329 11.9755 21.5078C11.9148 21.4826 11.8597 21.4458 11.8133 21.3993L6.81363 16.3996C6.74362 16.3297 6.69594 16.2405 6.67662 16.1435C6.6573 16.0465 6.6672 15.9459 6.70507 15.8545C6.74295 15.7631 6.80709 15.685 6.88938 15.63C6.97167 15.5751 7.06841 15.5458 7.16735 15.5459H17.1666C17.2656 15.5458 17.3623 15.5751 17.4446 15.63C17.5269 15.685 17.591 15.7631 17.6289 15.8545C17.6668 15.9459 17.6767 16.0465 17.6574 16.1435C17.638 16.2405 17.5904 16.3297 17.5204 16.3996Z" fill="#0B113E"/>
</svg>
