<svg width="24" height="24" viewBox="0 0 24 24" fill="none" xmlns="http://www.w3.org/2000/svg">
<path opacity="0.4" d="M19.5 6.75H17.55C16.65 4.5 14.475 3 12 3C9.525 3 7.35 4.5 6.45 6.75H4.5C3.225 6.75 2.25 7.725 2.25 9V9.45C2.25 12.075 4.425 14.25 7.05 14.25H17.025C19.65 14.25 21.825 12.075 21.825 9.45V9C21.75 7.725 20.775 6.75 19.5 6.75ZM12 4.5C13.65 4.5 15.075 5.4 15.9 6.75H8.1C8.925 5.4 10.35 4.5 12 4.5Z" fill="#0B113E"/>
<path d="M17.25 15.75V17.25C17.25 17.7 16.95 18 16.5 18C16.05 18 15.75 17.7 15.75 17.25V15.75H8.25V17.25C8.25 17.7 7.95 18 7.5 18C7.05 18 6.75 17.7 6.75 17.25V15.75C4.95 15.675 3.375 14.85 2.25 13.575V18.75C2.25 20.025 3.225 21 4.5 21H19.5C20.775 21 21.75 20.025 21.75 18.75V13.575C20.625 14.85 19.05 15.675 17.25 15.75Z" fill="#0B113E"/>
</svg>
