<svg width="24" height="24" viewBox="0 0 24 24" fill="none" xmlns="http://www.w3.org/2000/svg">
<path opacity="0.3" fill-rule="evenodd" clip-rule="evenodd" d="M12 2V8.5C12 8.87288 12.1389 9.23239 12.3896 9.50842C12.6403 9.78445 12.9848 9.9572 13.356 9.993L13.5 10H20V20C20.0002 20.5046 19.8096 20.9906 19.4665 21.3605C19.1234 21.7305 18.6532 21.9572 18.15 21.995L18 22H6C5.49542 22.0002 5.00943 21.8096 4.63945 21.4665C4.26947 21.1234 4.04284 20.6532 4.005 20.15L4 20V4C3.99984 3.49542 4.19041 3.00943 4.5335 2.63945C4.87659 2.26947 5.34684 2.04284 5.85 2.005L6 2H12Z" fill="#0B113E"/>
<path fill-rule="evenodd" clip-rule="evenodd" d="M14 2.04297C14.3234 2.11162 14.6247 2.25936 14.877 2.47297L15 2.58597L19.414 6.99997C19.648 7.23397 19.821 7.52297 19.916 7.83997L19.956 7.99997H14V2.04297ZM11.293 11.173L9.17199 13.294C9.07648 13.3862 9.0003 13.4966 8.94789 13.6186C8.89548 13.7406 8.86789 13.8718 8.86674 14.0046C8.86558 14.1373 8.89088 14.269 8.94117 14.3919C8.99145 14.5148 9.0657 14.6265 9.15959 14.7204C9.25348 14.8143 9.36514 14.8885 9.48803 14.9388C9.61093 14.9891 9.74261 15.0144 9.87539 15.0132C10.0082 15.0121 10.1394 14.9845 10.2614 14.9321C10.3834 14.8797 10.4937 14.8035 10.586 14.708L11 14.294V17C11 17.2652 11.1053 17.5195 11.2929 17.7071C11.4804 17.8946 11.7348 18 12 18C12.2652 18 12.5196 17.8946 12.7071 17.7071C12.8946 17.5195 13 17.2652 13 17V14.294L13.414 14.708C13.5062 14.8035 13.6166 14.8797 13.7386 14.9321C13.8606 14.9845 13.9918 15.0121 14.1246 15.0132C14.2574 15.0144 14.389 14.9891 14.5119 14.9388C14.6348 14.8885 14.7465 14.8143 14.8404 14.7204C14.9343 14.6265 15.0085 14.5148 15.0588 14.3919C15.1091 14.269 15.1344 14.1373 15.1332 14.0046C15.1321 13.8718 15.1045 13.7406 15.0521 13.6186C14.9997 13.4966 14.9235 13.3862 14.828 13.294L12.708 11.173C12.6151 11.08 12.5048 11.0062 12.3834 10.9559C12.262 10.9056 12.1319 10.8797 12.0005 10.8797C11.8691 10.8797 11.7389 10.9056 11.6175 10.9559C11.4961 11.0062 11.3859 11.08 11.293 11.173Z" fill="#0B113E"/>
</svg>
