<?xml version="1.0" encoding="UTF-8"?>
<svg id="Layer_2" data-name="Layer 2" xmlns="http://www.w3.org/2000/svg" viewBox="0 0 1000 335.05">
  <defs>
    <style>
      .cls-1 {
        fill: #abd037;
      }

      .cls-2 {
        fill: #07f;
      }
    </style>
  </defs>
  <g id="Layer_1-2" data-name="Layer 1">
    <g>
      <g>
        <g>
          <path class="cls-1" d="M169.53,75.49h10.21c10.63,0,17.56,11.16,12.86,20.7l-63.52,128.69c-.34.68-1.03,1.12-1.8,1.12h-13.04c-6.85,0-12.64-5.07-13.55-11.85l-9.75-72.49c-.16-1.22-1.82-1.49-2.36-.38l-40.68,83.6c-.34.69-1.03,1.13-1.8,1.13h-13.12c-6.81,0-12.58-5.01-13.54-11.76L.01,77.1c-.12-.85.54-1.61,1.4-1.61h16.44c9.21,0,17,6.84,18.2,15.98l9.45,72.32c.14,1.08,1.6,1.32,2.08.34l42.51-87.51c.34-.69,1.04-1.13,1.8-1.13h13.05c4.09,0,7.54,3.04,8.07,7.09l10.51,81.2c.14,1.08,1.6,1.32,2.08.34l42.67-87.84c.24-.49.73-.79,1.27-.79"/>
          <path class="cls-1" d="M207.5,225.99h-14.22c-8.5,0-14.94-7.68-13.46-16.05l16.24-92.2c.17-.96,1-1.66,1.97-1.66h19.74c5.62,0,9.87,5.07,8.9,10.61l-17.2,97.64c-.17.96-1,1.66-1.97,1.66"/>
          <path class="cls-1" d="M305,114.92c6.37,0,11.99,1.11,16.85,3.32,4.86,2.22,8.92,5.15,12.19,8.81,3.26,3.66,5.69,7.88,7.29,12.66,1.59,4.78,2.39,9.82,2.39,15.11,0,3.03-.23,6.07-.7,9.1l-10.67,60.41c-.17.96-1,1.65-1.97,1.65h-14.33c-8.5,0-14.94-7.68-13.46-16.06l7.19-40.76c1.24-7.47.45-13.4-2.39-17.79-2.84-4.39-7.75-6.59-14.75-6.59-5.44,0-10.32,1.79-14.63,5.37-4.31,3.58-7.09,8.79-8.34,15.63l-10.21,58.54c-.17.96-1,1.66-1.97,1.66h-14.33c-8.5,0-14.94-7.68-13.46-16.05l16.24-92.2c.17-.96,1-1.66,1.97-1.66h11.04c6.63,0,12.46,4.37,14.33,10.73,3.03-2.26,6.22-4.24,9.56-5.95,2.88-1.4,6.22-2.74,10.03-4.02,3.81-1.28,7.85-1.93,12.13-1.93"/>
          <path class="cls-1" d="M471.87,116.09h-7.28c-8.72,0-16.99,4.46-21.67,11.81-.1.16-.33.19-.47.06-2.43-2.38-5.26-4.51-8.48-6.39-2.88-1.79-6.34-3.34-10.38-4.67-4.04-1.32-8.63-1.98-13.76-1.98-7,0-13.84,1.46-20.52,4.37-6.69,2.92-12.58,6.94-17.67,12.08-5.09,5.13-9.26,11.21-12.3,18.32-4.75,11.08-4.94,20.68-4.94,28.92,0,6.69,1.15,12.95,3.44,18.78,2.29,5.83,5.52,10.85,9.68,15.05,4.16,4.2,9.06,7.51,14.69,9.92,5.64,2.41,11.72,3.62,18.25,3.62,3.96,0,7.42-.41,10.38-1.22,2.95-.82,5.48-1.69,7.58-2.63,1.68-.84,3.22-1.75,4.62-2.71.19-.13.44.04.39.26-7.01,34.14-31.31,51.25-55.86,59.74-6.38,2.21-4.33,11.75,2.39,11.07,36.44-3.67,77.12-19.37,85.87-69.28,5.98-34.13,15.88-90.63,18.01-102.77.22-1.23-.73-2.35-1.97-2.35M417.49,194.19c-2.96,1.28-6.1,1.93-9.45,1.93-6.53,0-11.7-1.9-15.51-5.72-3.81-3.81-5.72-9.44-5.96-15.19-.15-3.68.17-9.88,2.44-15.02,1.36-3.08,3.03-5.83,5.25-8.17,2.22-2.33,4.8-4.12,7.76-5.37,2.95-1.24,6.1-1.87,9.45-1.87,6.53,0,11.7,1.91,15.51,5.72,3.81,3.81,5.71,8.6,5.71,14.35,0,2.31-.36,6.86-.94,10.66l-.66,3.52c-.17.71-.35,1.33-.54,1.79-1.24,3.03-2.99,5.7-5.25,7.99-2.26,2.3-4.86,4.08-7.81,5.37"/>
          <path class="cls-2" d="M286.39,31.63s17.44,3.28,24.78,32.62c3.49,13.96,5.94,24.21,9.3,37.94.33,1.36-1.5,2.17-2.16.94-4.56-8.41-16.94-31.04-35.25-42.98-9.97-6.5-23.23-13.28-33.33,1.36-7.78,11.27-13.47,26.63-16.7,36.57-.5,1.54-2.81,1.01-2.58-.59,1.61-11.18,5.47-23.08-.76-30.09-6-6.75-23.69-4.66-36.64-4.62-1.27,0-1.42-1.86-.16-2.05,14.79-2.24,37.72-5.7,45.55-11.09,4.16-2.86,17.86-12.71-5.36-27.51-17.08-10.89-38.85-16.9-48.86-20.22-1.11-.37-.75-2.02.41-1.92,10.08.83,33.51,2.35,40.32,2.86,12.89.97,42.2,3.08,47.04,18.38,8.73-7.05,19.46-9.34,24.47-7,.83.31-.11,2.68-.11,2.68,0,0-3.6,8.02-9.95,14.7"/>
        </g>
        <g>
          <path class="cls-2" d="M534.44,89.62c1.15-6.16,6.48-10.57,12.77-10.57h45.63c39.89,0,46.45,16.12,46.8,32.24.43,19.43-9.62,32.66-26.48,36.38,0,0-.2.04-.21.21,0,.18.22.2.22.2,13.09,3.1,21.22,15.71,21.51,28.94.66,29.97-22.89,49.4-66.08,49.6h-56.66c-1.61,0-2.81-1.45-2.51-3.03l25.02-133.97ZM547.64,193.34c-.31,1.63.92,3.12,2.58,3.12h27.01c13.43,0,26.19-2.89,25.84-18.81-.3-13.64-12.72-14.67-22.64-14.67h-24.82c-1.31,0-2.44.94-2.68,2.23l-5.29,28.14ZM558.7,134.22c-.28,1.52.87,2.91,2.41,2.91h24.33c15.5,0,23.04-4.96,22.79-16.33-.24-10.75-11.42-11.57-19.68-11.57h-23.11c-1.21,0-2.27.88-2.49,2.07l-4.25,22.92Z"/>
          <path class="cls-2" d="M953.06,162.02l27.82,64.01h-27.14c-4.8,0-9.18-2.98-10.95-7.49l-13.79-34.89c-.16-.4-.66-.52-.99-.25l-11.2,9.51c-.2.17-.34.4-.38.66l-5.72,30.81c-.18.96-1.01,1.65-1.98,1.65h-13.18c-8.85,0-15.65-8.14-14.02-16.81l24.61-130.77h14.7c8.93,0,15.78,8.22,14.13,16.96l-11.21,59.38h0c0,.12.09.22.21.22.05,0,.09-.02.13-.05h0l31.23-31.56c2.94-2.97,6.94-4.65,11.08-4.65h33.45c.13,0,.19.16.09.24l-46.47,41.12c-.54.47-.71,1.24-.42,1.9Z"/>
          <path class="cls-2" d="M834.44,114.96c6.37,0,11.99,1.11,16.85,3.32,4.86,2.22,8.92,5.15,12.19,8.81,3.26,3.66,5.69,7.88,7.29,12.66,1.59,4.78,2.39,9.82,2.39,15.11,0,3.03-.23,6.07-.7,9.1l-10.67,60.41c-.17.96-1,1.65-1.97,1.65h-14.33c-8.5,0-14.94-7.68-13.46-16.06l7.19-40.76c1.24-7.47.45-13.4-2.39-17.79-2.84-4.39-7.75-6.59-14.75-6.59-5.44,0-10.32,1.79-14.63,5.37-4.31,3.58-7.09,8.79-8.34,15.63l-10.21,58.54c-.17.96-1,1.66-1.97,1.66h-14.33c-8.5,0-14.94-7.68-13.46-16.05l16.24-92.2c.17-.96,1-1.66,1.97-1.66h11.04c6.4,0,12.05,4.07,14.12,10.07.11.32.49.45.77.25,2.86-2.09,5.86-3.93,9-5.54,2.88-1.4,6.22-2.74,10.03-4.02,3.81-1.28,7.85-1.93,12.13-1.93"/>
          <path class="cls-2" d="M707.63,113.48c-25.24,0-45.16,7.64-51.07,33.06-.37,1.6.81,3.11,2.44,3.11h21.48c4.49,0,8.47-2.5,10.67-6.37,2.93-5.2,8.82-7.06,17.19-7.06,10.54,0,14.97,4.13,15.11,10.33.31,14.05-16.24,13.23-28.22,13.85-27.44,2.06-49.85,7.64-49.22,36.37.48,22.12,18.72,30.18,32.5,30.18,15.29,0,25.75-3.92,32.15-13.43l1.62-2.96s0,0,0-.01c.05-.09.14-.14.25-.14.15,0,.28.12.28.29h0c-.56,5.39,2.13,10.41,6.43,13.16,2.15,1.38,4.71,2.19,7.47,2.19h10.61c.97,0,1.79-.7,1.94-1.66l.08-.53s10.68-63.97,13.39-78.02c4.09-21.19-15.33-32.35-45.1-32.35ZM692.5,205.24c-7.02,0-14.32-2.68-14.5-11.16-.45-20.4,30.73-12.21,39.93-19.14h0s.03-.02.04-.04c.04-.03.1-.05.16-.05.17,0,.3.14.29.3,0,.02,0,.04,0,.06h0c-1.11,9.94-5.05,30.03-25.93,30.03Z"/>
        </g>
      </g>
      <path class="cls-2" d="M635.63,288.92c5.73-1.54,9.09-5.61,9.09-11.11v-.1c0-3.04-1.09-5.81-3.06-7.78-2.5-2.5-6.38-3.88-10.92-3.88h-16.45v37.95h5.97v-14.01h8.87l10.45,14.01h7.38l-11.33-15.08ZM620.26,271.7h10.17c5.25,0,8.27,2.24,8.27,6.15v.1c0,3.93-3.27,6.46-8.32,6.46h-10.12v-12.72Z"/>
      <path class="cls-2" d="M671.26,265.42c-10.87,0-19.39,8.6-19.39,19.59v.1c0,11.11,8.29,19.49,19.29,19.49s19.39-8.61,19.39-19.6v-.1c0-11.11-8.29-19.49-19.29-19.49ZM671.26,298.95c-7.56,0-13.26-5.99-13.26-13.93v-.1c0-7.88,5.66-13.83,13.16-13.83s13.26,5.99,13.26,13.93v.1c0,7.88-5.66,13.83-13.16,13.83Z"/>
      <polygon class="cls-2" points="729.15 266.04 713.3 289.02 713.3 303.99 707.28 303.99 707.28 289.07 691.43 266.04 698.69 266.04 710.34 283.32 722.09 266.04 729.15 266.04"/>
      <path class="cls-2" d="M746.85,265.78h-5.04l-17.29,38.21h6.26l4.28-9.53h18.38l4.22,9.53h6.47l-17.29-38.21ZM751,288.85h-13.49l6.77-15.05,6.72,15.05Z"/>
      <polygon class="cls-2" points="796.02 298.33 796.02 303.99 769.75 303.99 769.75 266.04 775.72 266.04 775.72 298.33 796.02 298.33"/>
      <g>
        <path class="cls-2" d="M850.46,282.24v15.75l-.32.28c-2.41,2.15-7.57,5.75-15.11,5.75-11.35,0-19.29-8.02-19.29-19.49v-.1c0-10.99,8.36-19.59,19.03-19.59,5.76,0,9.83,1.45,14.06,5.01l.73.62-3.87,4.55-.73-.63c-2.32-2.02-5.18-3.89-10.34-3.89-7.15,0-12.75,6.07-12.75,13.83v.1c0,8.4,5.35,14.04,13.31,14.04,3.37,0,6.87-1.16,9.45-3.12v-7.54h-10.97v-5.56h16.79Z"/>
        <path class="cls-2" d="M876.91,288.33c5.72-1.54,9.09-5.61,9.09-11.11v-.1c0-3.04-1.09-5.8-3.06-7.78-2.51-2.51-6.38-3.89-10.92-3.89h-16.45v37.96h5.97v-14.01h8.87l10.45,14.01h7.38l-11.33-15.08ZM861.54,271.11h10.17c5.25,0,8.27,2.24,8.27,6.15v.1c0,3.93-3.27,6.46-8.32,6.46h-10.12v-12.72Z"/>
        <path class="cls-2" d="M908.43,264.83c-10.87,0-19.39,8.61-19.39,19.59v.1c0,11.11,8.29,19.49,19.29,19.49s19.39-8.61,19.39-19.6v-.1c0-11.11-8.29-19.49-19.29-19.49ZM908.43,298.35c-7.56,0-13.26-5.99-13.26-13.93v-.1c0-7.88,5.66-13.83,13.16-13.83s13.26,5.99,13.26,13.93v.1c0,7.88-5.66,13.83-13.16,13.83Z"/>
        <path class="cls-2" d="M963.61,265.45v21.6c0,10.59-5.98,16.92-15.99,16.92s-15.94-6.36-15.94-16.61v-21.91h5.97v21.66c0,7.12,3.67,11.2,10.07,11.2s9.92-3.89,9.92-10.94v-21.91h5.97Z"/>
        <path class="cls-2" d="M983.62,265.45h-14.44v37.96h5.97v-12.72h7.8c9.04,0,15.11-5.12,15.11-12.75v-.1c0-7.52-5.67-12.38-14.45-12.38ZM983.11,285.07h-7.96v-13.96h8.16c5.55,0,8.73,2.51,8.73,6.87v.1c0,4.24-3.51,6.98-8.94,6.98Z"/>
      </g>
    </g>
  </g>
</svg>
