<svg width="24" height="24" viewBox="0 0 24 24" fill="none" xmlns="http://www.w3.org/2000/svg">
<path d="M9.89062 12.7031H14.1094V14.1094H9.89062V12.7031Z" fill="#0B113E"/>
<path d="M18.2257 14.2703H14.9297V14.9145C14.9297 15.2704 14.6675 15.5586 14.3438 15.5586H9.65625C9.33246 15.5586 9.07031 15.2704 9.07031 14.9145V14.2703H5.77426C5.01666 14.2703 4.34665 13.7394 4.10678 12.9493L2 6V20.0676C2 21.1331 2.78857 22 3.75781 22H20.2422C21.2114 22 22 21.1331 22 20.0676V6.0005L19.8931 12.9493C19.6534 13.7394 18.9833 14.2703 18.2257 14.2703Z" fill="#0B113E"/>
<path opacity="0.3" d="M14.3458 2H9.65407C8.68396 2 7.89468 2.92526 7.89468 4.0625V4.75H3L5.21191 12.53C5.29209 12.8113 5.51599 13 5.7686 13H9.06761V12.3125C9.06761 11.9326 9.32999 11.625 9.65407 11.625H14.3458C14.6699 11.625 14.9322 11.9326 14.9322 12.3125V13H18.2313C18.4839 13 18.7078 12.8113 18.7879 12.53L21 4.75H16.1052V4.0625C16.1052 2.92526 15.3159 2 14.3458 2ZM9.06761 4.75V4.0625C9.06761 3.68312 9.33045 3.375 9.65407 3.375H14.3458C14.6694 3.375 14.9322 3.68312 14.9322 4.0625V4.75H9.06761Z" fill="#0B113E"/>
</svg>
