<svg width="24" height="24" viewBox="0 0 24 24" fill="none" xmlns="http://www.w3.org/2000/svg">
<path opacity="0.3" d="M12 2C17.523 2 22 6.477 22 12C22 17.523 17.523 22 12 22C6.477 22 2 17.523 2 12C2 6.477 6.477 2 12 2Z" fill="#0B113E"/>
<path d="M12 4.00001C10.7761 3.99904 9.56827 4.27934 8.46986 4.81927C7.37145 5.35919 6.4118 6.14431 5.665 7.11401L5.5 7.33501V9.02001C5.5 10.27 6.275 11.389 7.445 11.829L7.623 11.889L8.913 12.284C10.286 12.704 11.623 11.587 11.49 10.188L11.471 10.043L11.296 8.99401C11.2573 8.76164 11.3019 8.52308 11.4219 8.32037C11.542 8.11767 11.7297 7.96384 11.952 7.88601L12.06 7.85601L12.672 7.71601C13.0192 7.63664 13.3471 7.48852 13.6361 7.28039C13.9252 7.07226 14.1696 6.80833 14.355 6.50419C14.5404 6.20005 14.663 5.86185 14.7155 5.50956C14.7681 5.15727 14.7496 4.79801 14.661 4.45301C13.8061 4.15213 12.9063 3.99894 12 4.00001ZM14 13.4L12.436 14.651C12.3811 14.6949 12.3361 14.75 12.3039 14.8125C12.2717 14.875 12.2531 14.9436 12.2492 15.0138C12.2453 15.0841 12.2563 15.1543 12.2814 15.22C12.3066 15.2857 12.3453 15.3453 12.395 15.395L13.634 16.634C13.874 16.874 14.049 17.172 14.142 17.498L14.317 18.111C14.464 18.632 14.837 19.059 15.334 19.274C16.2905 18.8344 17.1512 18.2109 17.867 17.439L17.633 15.562C17.5921 15.2354 17.4711 14.924 17.281 14.6554C17.0909 14.3868 16.8374 14.1692 16.543 14.022L15.073 13.286C14.902 13.2004 14.71 13.1657 14.5198 13.1859C14.3296 13.2061 14.1492 13.2804 14 13.4Z" fill="#0B113E"/>
</svg>
